<svg width="117" height="54" viewBox="0 0 117 54" fill="none" xmlns="http://www.w3.org/2000/svg">
<path d="M32.9557 24.5977H32.748C32.3327 24.5977 31.9347 24.4939 31.5627 24.2862C30.8878 23.7758 30.3946 23.0922 30.0659 22.2357C29.4862 21.033 28.967 19.7958 28.4998 18.5152C28.0585 17.3991 27.6692 16.283 27.3145 15.1409L27.1068 14.4141C26.8992 16.8973 26.3541 19.2939 25.4715 21.6041C25.1947 22.3914 24.7967 23.0576 24.2862 23.6027C23.7757 24.1478 23.2047 24.416 22.5817 24.416L22.1664 24.3814C21.5434 24.1997 21.0676 23.8104 20.7388 23.2134C20.41 22.625 20.1851 22.0021 20.0466 21.3532C19.4669 18.6883 19.1814 15.9974 19.1814 13.2893C19.1814 11.1782 19.3544 9.07569 19.7005 6.96455L19.7351 6.86073C19.8303 6.00416 20.0034 5.15624 20.2543 4.30833C20.5052 3.46041 20.9464 2.78554 21.578 2.27506C22.201 1.76458 22.8499 1.51367 23.5248 1.51367C23.9228 1.51367 24.3121 1.58289 24.7101 1.72132C25.7311 2.27506 26.4146 3.13163 26.7607 4.27372C27.1068 5.42446 27.2798 6.72229 27.2798 8.18451C28.3441 6.63577 29.3304 5.33794 30.2302 4.29103C30.7148 3.59885 31.3464 3.09702 32.1078 2.7942C32.3154 2.75093 32.5144 2.72498 32.6961 2.72498C33.4402 2.72498 34.0718 3.03646 34.6083 3.65941C35.1447 4.28237 35.4043 5.01781 35.4043 5.84842C35.4043 6.86938 35.1014 7.87303 34.5044 8.86804C33.5786 10.3995 32.3414 11.5935 30.784 12.45C31.2512 12.701 31.6838 12.9951 32.1078 13.3153C33.7949 14.6823 34.9457 16.4301 35.5513 18.5585C35.759 19.2334 35.8628 19.9169 35.8628 20.6091C35.8628 22.0886 35.3437 23.2393 34.2968 24.0526C33.8901 24.3814 33.4402 24.5545 32.9557 24.5977Z" fill="white"/>
<path d="M38.8654 21.3384C38.5453 21.3384 38.2078 21.2778 37.8618 21.1653C37.2128 20.8625 36.7802 20.4126 36.5726 19.8069C36.4082 19.3224 36.3303 18.7427 36.3303 18.0678C36.3303 15.3078 36.8322 12.5564 37.8272 9.79634C38.6405 7.47755 39.8345 5.34911 41.4092 3.40237C42.4042 2.17376 43.4943 1.5335 44.6797 1.49023C45.9775 1.5335 47.1196 2.25163 48.1233 3.64463C49.698 5.77307 50.7535 8.08321 51.29 10.5577C51.7745 12.8246 52.0168 15.3078 52.0168 17.9986C52.0168 18.6043 51.9562 19.1494 51.8437 19.6339C51.7312 20.1184 51.4284 20.5337 50.9439 20.8885C50.5459 21.1394 50.0441 21.2692 49.4124 21.2692C48.9452 21.2692 48.5213 21.174 48.1233 20.9923C47.2927 20.4818 46.7216 19.7896 46.4188 18.9244C46.116 18.0592 45.9689 17.1507 45.9689 16.199L45.9343 14.1138C45.5363 14.183 45.1383 14.2176 44.7143 14.2176C44.3855 14.2176 44.0654 14.1917 43.7453 14.1484C43.6501 15.9567 43.0877 17.6612 42.0408 19.2532C41.6428 19.9281 41.089 20.4818 40.3709 20.9231C39.8691 21.1999 39.3759 21.3384 38.8654 21.3384ZM44.9133 10.4972C45.0777 10.4972 45.2594 10.4106 45.467 10.2376C45.6747 10.0646 45.8045 9.81365 45.8477 9.49351L45.8823 9.0436C45.8823 8.39469 45.7699 7.84095 45.5363 7.37373C45.3978 7.0536 45.1556 6.82864 44.8095 6.71616L44.671 6.68155C44.5326 6.68155 44.3769 6.86325 44.2211 7.23529L44.1865 7.33912C44.0221 7.78038 43.9443 8.2303 43.9443 8.69751C43.9443 9.25125 44.0481 9.71847 44.2557 10.0905C44.3855 10.3587 44.6105 10.4972 44.9133 10.4972Z" fill="white"/>
<path d="M58.4279 24.4249L57.7703 24.3903C56.1956 24.1826 54.9756 23.4386 54.1191 22.1667C53.747 21.5178 53.5048 20.8256 53.3923 20.0988C53.2798 19.372 53.2106 18.6366 53.1846 17.8925L52.7607 9.2057L52.7261 8.20205C52.7261 7.85596 52.7434 7.432 52.778 6.93018C52.8126 6.42835 52.9943 5.89191 53.3144 5.31221C54.0326 4.10956 55.1573 3.50391 56.6888 3.50391C57.2944 3.50391 57.9087 3.62504 58.549 3.8673C59.1893 4.10956 59.6651 4.62869 59.9939 5.41604C60.2967 6.38509 60.4438 7.37143 60.4438 8.36644C60.4438 8.73848 60.4179 9.09322 60.3746 9.44796C60.3746 11.5591 60.2621 13.999 60.0285 16.7764L60.6169 16.4995C61.1706 16.2226 61.6465 16.0842 62.0445 16.0842C62.2954 16.0842 62.5463 16.1188 62.7713 16.188C63.7922 16.586 64.4411 17.3128 64.718 18.377C64.7613 18.6539 64.7872 18.9308 64.7872 19.2076C64.7872 19.9517 64.5882 20.6526 64.1989 21.3274C63.6451 22.2099 62.9097 22.9021 62.0099 23.4126C60.8937 24.0961 59.6997 24.4249 58.4279 24.4249Z" fill="white"/>
<path d="M71.9513 20.1856C71.0947 20.1856 70.2468 19.9347 69.4162 19.4242C68.0924 18.5417 67.0541 17.3823 66.2927 15.946C64.5536 13.0735 63.6711 9.99328 63.6538 6.70545C63.6538 3.55605 64.2075 1.51413 65.3237 0.588348C65.8082 0.198999 66.3533 0 66.9589 0H67.2358C68.326 0.207653 69.1133 0.847916 69.5979 1.91214C69.9007 2.65622 70.0478 3.41762 70.0478 4.20497C70.0478 4.68949 69.9439 5.52875 69.7363 6.70545C69.5546 7.70045 69.4594 8.53971 69.4594 9.20593C69.4594 10.0365 69.6238 10.8499 69.9439 11.6372C70.1949 12.1736 70.5929 12.5024 71.1293 12.6409L71.4408 12.6755C71.7609 12.6755 72.0983 12.537 72.4444 12.2602C73.1626 11.7064 73.526 10.6422 73.526 9.0675C73.526 8.6695 73.4914 8.28015 73.4221 7.88215V7.77832C73.3529 7.33706 73.3183 6.9131 73.3183 6.48915C73.3183 5.81427 73.3962 5.15671 73.5606 4.50779C73.7423 3.95405 74.0537 3.46953 74.4777 3.06288C74.9103 2.65622 75.3948 2.45722 75.9572 2.45722C76.4417 2.45722 76.883 2.59566 77.281 2.87253C78.2501 3.59066 78.7432 4.82792 78.7432 6.59297V7.04289C78.7432 10.5384 77.9299 13.8435 76.312 16.9496C75.7755 18.135 74.9882 19.0608 73.9499 19.727C73.2577 20.0385 72.5915 20.1856 71.9513 20.1856Z" fill="white"/>
<path d="M9.89811 54.0004H9.75967C8.28015 54.0004 6.88714 53.6629 5.58932 52.9967C2.89848 51.4653 1.16804 49.1898 0.380693 46.1528C0.12978 45.0627 0 43.9898 0 42.9256C0 41.074 0.380696 39.2397 1.15074 37.4314C2.03326 35.2338 3.40031 33.3995 5.25188 31.9373C7.03423 30.5702 9.01558 29.8867 11.1959 29.8867C12.0958 29.8867 12.9091 30.0598 13.6272 30.4059C14.2329 30.7346 14.6482 31.2019 14.8818 31.8335C14.951 32.0671 14.9856 32.3007 14.9856 32.5256C14.9856 32.9236 14.8472 33.3736 14.5703 33.884C13.9646 35.0175 12.5889 35.7875 10.4345 36.1769L9.53472 36.3845C7.05154 36.9902 5.57201 38.3399 5.08749 40.451C4.99231 40.8664 4.94906 41.2817 4.94906 41.7056C4.94906 42.4497 5.11345 43.1765 5.43358 43.8946C6.35936 45.6337 7.86484 46.4989 9.95002 46.4989C10.5297 46.4989 11.1354 46.4211 11.7583 46.2567H11.7929C12.5543 46.0231 13.2379 45.9106 13.8435 45.9106C14.5876 45.9106 15.1846 46.1442 15.6518 46.6028C16.3007 47.2776 16.6209 48.039 16.6209 48.8956C16.6209 49.1552 16.5949 49.4061 16.5516 49.657C16.1536 50.9981 15.3317 52.0623 14.0685 52.841C12.7879 53.611 11.4036 54.0004 9.89811 54.0004Z" fill="white"/>
<path d="M25.9913 51.0041C23.0928 50.9781 20.6616 50.061 18.6975 48.244C16.7248 46.4271 15.7125 44.0477 15.6433 41.106C15.7817 37.697 17.0709 34.9543 19.5022 32.8691C21.5181 31.1819 23.7418 30.334 26.173 30.334C26.7095 30.334 27.2373 30.3686 27.7737 30.4378C29.9713 30.8791 31.8575 31.8914 33.4236 33.4834C34.9896 35.0667 35.8894 37.0827 36.1144 39.514V40.1369C36.1144 42.9143 35.1886 45.3888 33.337 47.5605C31.4682 49.7149 29.0196 50.8656 25.9913 51.0041ZM25.8096 44.9562C27.3151 44.9562 28.5178 44.3851 29.4263 43.2517C30.1444 42.3519 30.5078 41.2963 30.5078 40.085V39.7735C30.3693 38.5882 29.9021 37.6797 29.1148 37.0308C28.3274 36.3819 27.3757 36.0012 26.2682 35.88H26.0952C24.8406 35.88 23.7591 36.3386 22.8419 37.2557C21.9248 38.1729 21.4316 39.3582 21.3624 40.8204C21.4057 42.2567 21.9162 43.3296 22.8938 44.0477C23.7245 44.662 24.7022 44.9562 25.8096 44.9562Z" fill="white"/>
<path d="M46.7653 51.0041C43.8668 50.9781 41.4355 50.061 39.4715 48.244C37.4988 46.4271 36.4865 44.0477 36.4172 41.106C36.5557 37.697 37.8449 34.9543 40.2761 32.8691C42.2921 31.1819 44.5157 30.334 46.947 30.334C47.4834 30.334 48.0112 30.3686 48.5476 30.4378C50.7453 30.8791 52.6314 31.8914 54.1975 33.4834C55.7635 35.0667 56.6634 37.0827 56.8883 39.514V40.1369C56.8883 42.9143 55.9625 45.3888 54.111 47.5605C52.2508 49.7149 49.8022 50.8656 46.7653 51.0041ZM46.5922 44.9562C48.0977 44.9562 49.3004 44.3851 50.2088 43.2517C50.927 42.3519 51.2904 41.2963 51.2904 40.085V39.7735C51.1519 38.5882 50.6847 37.6797 49.8974 37.0308C49.11 36.3819 48.1583 36.0012 47.0508 35.88H46.8777C45.6232 35.88 44.5417 36.3386 43.6245 37.2557C42.7074 38.1729 42.2142 39.3582 42.145 40.8204C42.1883 42.2567 42.6987 43.3296 43.6764 44.0477C44.507 44.662 45.4847 44.9562 46.5922 44.9562Z" fill="white"/>
<path d="M69.5983 51.8439H69.4599C69.0619 51.8439 68.6985 51.7401 68.3437 51.5324C67.7381 51.0479 67.3141 50.399 67.0546 49.5857C66.172 47.4313 65.4539 45.2336 64.9002 42.984L64.7271 42.3265C64.4243 44.576 63.8273 46.7304 62.9188 48.7897C62.616 49.5078 62.2094 50.1221 61.6989 50.6326C61.2576 51.0479 60.7731 51.2555 60.2366 51.2555C60.0723 51.2555 59.9079 51.2296 59.7521 51.1863C58.8263 50.8835 58.238 49.9318 57.9784 48.3397C57.6496 46.4622 57.4939 44.5847 57.4939 42.7072C57.4939 40.2067 57.7794 37.7062 58.3591 35.1971V35.0932C58.4976 34.3318 58.6966 33.5618 58.9648 32.8004C59.233 32.039 59.6742 31.4074 60.3059 30.9229C60.8423 30.5508 61.3874 30.3691 61.9411 30.3691C62.3305 30.3691 62.7371 30.4643 63.1611 30.646C64.0436 31.1998 64.632 32.0217 64.9348 33.1119C65.1165 33.8992 65.2117 34.6952 65.2117 35.5085L65.177 36.6506L65.7654 35.8892C66.5095 34.9635 67.2709 34.0809 68.0582 33.2503C68.5428 32.6274 69.1398 32.1948 69.8319 31.9611L70.2818 31.9265C71 31.9265 71.5883 32.2207 72.0382 32.8091C72.4882 33.3974 72.7131 34.055 72.7131 34.7731L72.6785 35.2576C72.5401 36.1142 72.2286 36.9016 71.7441 37.6197C70.8442 38.9608 69.6502 39.999 68.1621 40.7172C68.5774 40.9681 68.9754 41.2623 69.3474 41.5824C70.8269 42.9062 71.7873 44.5501 72.2286 46.5141C72.367 47.0246 72.4362 47.5178 72.4362 48.011C72.4362 49.5597 71.8998 50.7104 70.8356 51.4545C70.4549 51.7141 70.0396 51.8439 69.5983 51.8439Z" fill="white"/>
<path d="M93.1756 53.6706C92.2498 53.6274 91.3932 53.3332 90.6059 52.8054C89.308 51.8104 88.564 50.1319 88.3823 47.7698C88.3563 47.3545 88.3477 46.9219 88.3477 46.4807C88.3477 45.5116 88.4082 44.5253 88.5207 43.5303V43.4264C88.5899 41.8777 88.8235 40.3463 89.2129 38.8408C89.5849 37.4305 90.2511 36.1846 91.2288 35.1203C92.3623 33.9609 93.7293 33.2774 95.33 33.0698L95.9529 33.0352C96.6711 33.0352 97.3632 33.1822 98.0381 33.4851C98.9206 33.9263 99.4657 34.6185 99.6734 35.5702L99.708 35.9856C99.708 36.4528 99.5782 36.92 99.31 37.4132C99.0418 37.8977 98.6524 38.313 98.1419 38.6677C97.0777 39.2907 95.9183 39.6281 94.6638 39.6714L94.5253 39.706C93.34 39.706 92.6391 40.078 92.4055 40.8221L92.3709 41.0298C92.3709 41.3326 92.4834 41.5835 92.717 41.7739C92.9506 41.9729 93.1756 42.068 93.4092 42.068C93.738 42.068 94.0408 42.0248 94.3263 41.9296C94.6118 41.8344 94.8974 41.7912 95.1742 41.7912C95.4251 41.8171 95.6761 41.8863 95.901 41.9988C96.299 42.2324 96.4894 42.5439 96.4894 42.9333C96.4894 43.3486 96.3077 43.7293 95.9529 44.0667C95.5895 44.4041 95.1483 44.6551 94.6118 44.8108C93.3573 45.278 92.7343 45.9096 92.7343 46.7229C92.7343 46.8354 92.7603 46.9652 92.8035 47.1036C93.0544 47.5708 93.4524 47.7958 93.9889 47.7958C94.1706 47.7958 94.3609 47.7612 94.5426 47.692C95.1656 47.4411 95.6674 47.0084 96.0394 46.4028L96.2471 46.1259C96.5499 45.6414 96.9047 45.2088 97.32 44.8367C97.8045 44.4907 98.3409 44.3176 98.9206 44.3176C99.5436 44.3176 100.089 44.482 100.556 44.8021C101.317 45.3559 101.707 46.1 101.707 47.0257C101.707 47.3026 101.663 47.5795 101.568 47.8564C101.291 48.5485 100.876 49.1628 100.314 49.6993C99.3619 50.7635 98.289 51.6893 97.095 52.4766C95.927 53.2726 94.6118 53.6706 93.1756 53.6706Z" fill="white"/>
<path d="M107.46 53.2465C106.924 53.2465 106.31 53.186 105.6 53.0562C104.891 52.9264 104.216 52.589 103.567 52.0352C102.615 51.2046 102.139 50.1318 102.139 48.8426C102.139 48.1937 102.286 47.5707 102.589 46.9651C103.056 46.1085 103.627 45.6759 104.328 45.6759C104.7 45.7018 105.038 45.823 105.34 46.0566C105.643 46.2902 105.929 46.5411 106.206 46.818L106.24 46.8526C106.915 47.5967 107.711 48.1417 108.637 48.4878C108.888 48.5571 109.156 48.5917 109.433 48.5917C109.641 48.5917 109.926 48.5484 110.281 48.4705C110.636 48.3927 110.964 48.1591 111.25 47.7784C111.535 47.3977 111.683 46.9997 111.683 46.5757C111.683 46.4805 111.665 46.2729 111.631 45.9527C111.596 45.6326 111.414 45.2433 111.094 44.8107C110.307 43.9281 109.295 43.2792 108.075 42.8639C107.192 42.5178 106.396 42.0766 105.678 41.5401C104.917 40.8653 104.389 40.0433 104.112 39.0742C103.973 38.5638 103.904 38.0706 103.904 37.5774C103.904 37.0929 103.973 36.6084 104.112 36.1152C104.804 34.0992 106.171 32.7322 108.213 32.0141C109 31.7804 109.779 31.668 110.54 31.668C111.726 31.668 112.877 31.9362 114.019 32.464C114.806 32.8101 115.464 33.3119 116 33.9608C116.467 34.5405 116.692 35.1808 116.692 35.8729C116.692 36.4959 116.51 37.015 116.138 37.4217C115.766 37.8283 115.325 38.0273 114.815 38.0273C114.235 38.0273 113.655 37.8889 113.076 37.612L112.591 37.4044C112.245 37.2659 111.804 37.1967 111.267 37.1967C110.852 37.1967 110.489 37.3265 110.186 37.5774C110.047 37.7678 109.978 37.9754 109.978 38.2004C109.978 38.3648 110.039 38.5984 110.168 38.9099C110.298 39.2213 110.471 39.5069 110.705 39.7578C111.285 40.3375 111.959 40.8047 112.721 41.1508L112.963 41.2892C113.638 41.5661 114.261 41.9295 114.841 42.3707C115.974 43.435 116.545 44.7155 116.545 46.195C116.545 46.5238 116.51 46.8699 116.441 47.2419C116.026 49.0762 115.031 50.5211 113.456 51.5853C111.708 52.6928 109.701 53.2465 107.46 53.2465Z" fill="white"/>
<path d="M84.6789 35.0435C83.8916 34.3946 82.7149 33.4169 81.8064 32.2402C81.668 32.0585 81.5382 31.9201 81.4171 31.799C81.2008 31.5134 80.9758 31.375 80.7422 31.375C80.647 31.375 80.5432 31.401 80.4307 31.4615C80.3269 31.5048 80.249 31.574 80.2144 31.6173C80.1885 31.6432 80.1538 31.6605 80.1279 31.6865C79.5222 32.2921 79.1415 33.2352 78.9771 34.5331C78.7435 36.8951 78.6311 40.0272 78.6311 43.912C78.6311 44.137 78.6311 44.3619 78.6397 44.5955C77.7139 44.3879 76.7535 44.5177 75.9056 44.9243C75.8364 44.9589 75.8104 45.0455 75.8537 45.106C75.9921 45.3483 76.0787 45.6252 76.0787 45.928C76.0787 46.5596 75.7153 47.1133 75.1875 47.3816C75.1269 47.4162 75.101 47.4854 75.1269 47.5546C75.1875 47.693 75.2221 47.8401 75.2221 48.0045C75.2221 48.6275 74.677 49.138 74.0108 49.138C73.855 49.138 73.708 49.112 73.5782 49.0601C73.483 49.0255 73.3878 49.1033 73.4051 49.1985C73.4657 49.7003 73.6301 50.2022 73.8896 50.6953C75.0663 52.9363 78.1984 53.9486 80.3009 52.8497C80.5605 52.7546 80.846 52.5469 81.0969 52.2787C81.1661 52.2181 81.2267 52.1489 81.2873 52.0797C81.7718 51.5346 82.0746 50.8597 82.1958 50.1503C82.2477 49.9859 82.2909 49.8042 82.3169 49.6052C82.7495 46.4298 82.3515 43.1939 82.3515 39.9493C82.3515 39.3264 82.3428 38.6948 82.3255 38.0718C83.4244 38.539 84.8087 39.0062 86.1671 39.2225C87.1189 39.3696 88.3215 38.9457 88.2956 38.1151C88.2523 36.774 85.3538 35.5973 84.6789 35.0435Z" fill="white"/>
</svg>
