<svg width="39" height="58" viewBox="0 0 39 58" fill="none" xmlns="http://www.w3.org/2000/svg">
<path d="M29.5214 9.70033C27.4458 7.98199 24.3708 5.41001 21.9877 2.28374C21.6252 1.80703 21.2848 1.4301 20.9663 1.13078C20.4062 0.376925 19.8242 0 19.2092 0C18.9456 0 18.682 0.0776026 18.3965 0.221722C18.1109 0.332583 17.9243 0.509958 17.8254 0.631905C17.7485 0.698422 17.6717 0.753853 17.6058 0.82037C16.0243 2.41677 15.025 4.92222 14.5857 8.35891C13.9817 14.6115 13.6852 22.8817 13.6852 33.1807C13.6852 33.7793 13.6961 34.378 13.6961 34.9766C11.2691 34.4334 8.75417 34.7771 6.54676 35.8524C6.37105 35.9411 6.30515 36.1628 6.40399 36.3402C6.77738 36.9832 6.98604 37.726 6.98604 38.5131C6.98604 40.1871 6.04159 41.6394 4.65784 42.36C4.4931 42.4486 4.4272 42.6482 4.50407 42.8145C4.6688 43.1803 4.75666 43.5794 4.75666 43.9896C4.75666 45.6525 3.33996 46.9939 1.5938 46.9939C1.18746 46.9939 0.814092 46.9274 0.462664 46.7944C0.221057 46.7057 -0.0205719 46.9053 0.00139234 47.1602C0.155142 48.4906 0.583446 49.8098 1.26434 51.129C4.35032 57.049 12.554 59.7208 18.056 56.8273C18.726 56.5723 19.4947 56.0291 20.1536 55.3196C20.3184 55.1533 20.4941 54.9759 20.6478 54.7985C21.9217 53.3463 22.7125 51.5836 23.0419 49.6879C23.1737 49.2444 23.2835 48.7677 23.3494 48.2356C24.4916 39.8434 23.4373 31.285 23.4373 22.7043C23.4373 21.0525 23.4044 19.3896 23.3604 17.7267C26.2487 18.9572 29.8618 20.1989 33.4201 20.7753C35.902 21.1744 39.0649 20.0326 38.999 17.8486C38.8782 14.29 31.2895 11.1637 29.5214 9.70033Z" fill="#0032C9"/>
</svg>
