<svg width="134" height="156" viewBox="0 0 134 156" fill="none" xmlns="http://www.w3.org/2000/svg">
<path d="M100.748 72.7971C100.037 72.8791 99.365 72.7971 98.6537 72.7971C97.5472 72.756 96.4802 72.7151 95.4527 72.8381L94.7019 72.8791C93.5164 73.0432 92.4889 73.0843 91.3033 73.3715C90.513 73.5767 90.1969 73.5356 88.7742 73.9459C88.2605 74.11 87.7468 74.192 87.2331 74.3151C86.2847 74.6023 85.3757 75.0126 84.4273 75.2998L84.1111 75.3818C83.5184 75.587 81.9772 75.751 81.3449 75.751C81.2659 75.751 80.199 75.751 80.1199 75.751L80.7521 74.6433C80.8312 74.5202 80.9102 74.3971 81.0287 74.3151C81.4239 73.9458 81.9377 73.6997 82.4119 73.5356L82.728 73.4125C83.6765 73.1253 84.6249 72.8382 85.5733 72.551C86.087 72.4279 86.5612 72.2637 87.075 72.0996C88.4976 71.6894 89.1299 71.6073 90.1178 71.3611C91.3429 71.0739 92.4889 70.8278 93.714 70.6637L94.3463 70.5816C95.4528 70.4175 96.6382 70.4586 97.7447 70.4996C98.4561 70.4996 99.1278 70.5406 99.7996 70.4996C99.7996 70.4996 101.301 70.4586 101.459 71.5253C101.618 72.633 101.104 72.715 100.748 72.7971Z" fill="#0032C9"/>
<path d="M50.4816 70.7036C49.9679 70.6215 49.4146 70.6215 48.9009 70.5805C48.5057 70.5395 48.15 70.5395 47.7548 70.4985C46.9249 70.4164 46.0161 70.2933 45.1072 70.2933C44.0402 70.2933 43.0523 70.2112 41.9853 70.2112L40.3255 70.1292C40.0884 70.1292 39.6932 70.1292 39.4561 70.1292C38.9424 70.1702 38.2706 70.1702 37.915 70.1292C37.7174 70.1292 37.5198 70.1702 37.3222 70.1292C36.848 70.0471 35.6229 70.2523 34.9511 70.6625L34.2002 71.9344C35.5043 71.9344 36.2552 71.7293 36.7294 71.7293C36.927 71.7293 37.4407 71.7292 37.6778 71.7703C38.152 71.8113 38.6263 71.8113 39.2191 71.8523C39.4562 71.8523 39.7723 71.8523 39.9699 71.8523L41.6691 71.9344C42.7361 71.9344 43.7241 72.0164 44.8305 72.0985C45.6999 72.1395 46.5298 72.2626 47.3992 72.3857C47.7944 72.4267 48.1896 72.4677 48.5847 72.5088C49.0985 72.5498 49.6516 72.5908 50.2049 72.6319C51.1533 72.7139 52.1413 72.7549 53.0897 72.919L53.4059 72.9601C55.0656 73.2063 59.0174 73.6165 60.7166 73.6576L60.5586 73.1242C60.4005 72.796 60.2819 72.5909 59.9263 72.5498C58.1875 72.2626 55.1842 71.6062 53.722 71.2779C53.722 71.401 51.3115 70.8267 50.4816 70.7036Z" fill="#0032C9"/>
<path d="M93.0419 84.6936C93.3186 85.1039 93.9903 85.5552 94.3855 85.6372C94.8202 85.7193 95.5315 85.6373 95.8872 85.4732C96.4009 85.227 96.7961 84.7347 96.8751 84.1193C97.0332 82.6012 96.3614 81.6986 95.2944 81.6165C94.8597 81.5755 94.267 81.5755 93.9113 81.7396C93.3581 81.9858 92.8048 82.7654 92.8444 83.4218C92.8444 83.709 92.7653 84.3243 93.0419 84.6936Z" fill="#0032C9"/>
<path d="M45.9373 84.6936C46.2139 85.1039 46.8856 85.5552 47.2808 85.6372C47.7155 85.7193 48.4269 85.6373 48.7825 85.4732C49.2962 85.227 49.6914 84.7347 49.7705 84.1193C49.9285 82.6012 49.2567 81.6986 48.1897 81.6165C47.755 81.5755 47.1623 81.5755 46.8066 81.7396C46.2534 81.9858 45.7002 82.7654 45.7397 83.4218C45.7397 83.709 45.6606 84.3243 45.9373 84.6936Z" fill="#0032C9"/>
<path d="M64.6682 83.0157L66.4465 82.9746C66.4465 82.9746 68.7385 93.97 66.4069 102.257C64.0754 110.545 64.0359 108.576 64.0359 108.576C64.0359 108.576 67.0788 93.1905 64.6682 83.0157Z" fill="#0032C9"/>
<path d="M82.8069 124.288C82.4118 125.067 79.5665 125.559 77.4326 124.985C74.8244 124.287 71.0307 124.041 70.0033 124.329C69.6871 124.411 69.1734 124.821 68.5016 125.518C68.3435 125.682 68.225 126.093 68.225 126.093C67.9483 125.888 67.4742 125.477 66.6838 125.067C65.5773 124.493 64.866 124 62.8111 124C61.8231 124 60.2819 125.026 58.9383 125.97C57.9504 126.708 56.7649 126.708 55.8955 126.872C55.7769 126.913 55.6583 126.913 55.5398 126.913C52.1808 126.749 50.2049 124.698 49.6912 124L49.0984 123.262C50.9163 123.631 54.4333 126.462 55.8955 126.175C56.6463 126.011 57.3971 125.559 58.3455 124.862C59.7682 123.836 60.6376 122.934 62.8111 122.934C64.945 122.934 66.5652 123.795 67.7508 124.452C67.9088 124.534 68.0274 124.616 68.1064 124.657C68.2249 124.329 68.4621 123.836 69.1339 123.508C70.3589 122.893 75.9704 123.508 78.4205 123.713" fill="#0032C9"/>
<path d="M68.6993 133.924C60.7562 133.924 55.4609 126.868 55.4214 126.786L56.7254 126.539C56.7649 126.622 62.0208 133.432 71.1099 132.488C75.2592 132.037 77.3931 128.919 79.0529 126.868C79.6061 126.211 79.9619 125.473 80.5151 125.186L82.0167 124.857C81.7006 125.022 80.357 126.54 80.1199 127.196C79.4481 129.206 78.5787 132.694 71.6236 133.76C70.7542 133.842 69.4896 133.924 68.6993 133.924Z" fill="#0032C9"/>
<path d="M69.0155 128.224C68.6598 128.224 68.2251 128.101 67.4347 127.937L67.2372 127.896C66.1307 127.608 63.1273 127.526 58.3457 127.567C58.0691 127.567 57.6739 127.526 56.6069 126.911L57.1206 126.336C57.1601 126.336 58.069 126.419 58.3061 126.419C63.1273 126.377 66.1702 126.952 67.3557 127.239L67.5533 127.28C69.0945 127.649 69.0945 127.649 69.9638 127.239L70.28 127.075C70.9913 126.747 72.4139 126.747 73.9156 126.747C75.3778 126.747 77.8675 124.777 78.5393 124.408L80.9103 125.516C80.12 125.967 75.6149 127.444 73.9156 127.444C72.572 127.444 71.1494 127.444 70.5566 127.731L70.2405 127.896C69.6873 128.101 69.4106 128.224 69.0155 128.224Z" fill="#0032C9"/>
<path d="M24.8347 118.788C26.4154 120.019 28.3913 121.291 29.4188 123.137C29.972 124.163 30.1696 125.311 30.2881 126.46C30.8414 130.686 31.118 134.83 31.118 139.097C31.118 140.738 31.2366 142.42 30.8809 143.979C30.8019 144.307 30.6043 144.759 30.5647 145.046C30.4857 145.415 30.5648 145.784 30.4857 146.112C30.3276 146.81 29.7744 147.343 29.4188 147.877C29.0631 148.451 28.9446 148.861 28.3518 149.189C28.0357 149.354 27.5614 149.477 27.2453 149.518C26.7711 149.6 26.5735 149.764 26.1783 149.846C25.546 150.01 24.6371 149.846 23.9653 149.846C23.1354 149.846 22.3056 149.846 21.4362 149.846C20.6459 149.846 19.8555 149.846 19.0652 149.846C18.7095 149.846 18.3143 149.805 17.9586 149.846C17.4449 149.887 17.0497 150.133 16.536 150.174C16.1408 150.215 15.8246 150.133 15.4295 150.215C15.0343 150.338 14.7577 150.461 14.323 150.461C13.8883 150.461 13.4931 150.42 13.0584 150.461C12.5842 150.461 12.2681 150.666 11.7938 150.748C10.2922 151.036 8.47434 150.79 6.93315 150.79C6.30087 150.79 5.31299 150.995 4.72022 150.79C4.04842 150.584 3.65323 149.805 3.41612 149.23C2.78384 147.753 2.54675 146.112 2.54675 144.43C2.54675 142.748 2.54675 141.066 2.54675 139.384C2.54675 138.604 2.54675 137.825 2.54675 137.045C2.54675 135.897 2.27011 134.871 2.23059 133.763C2.19107 132.696 1.91443 131.753 1.91443 130.686C1.91443 129.414 1.91443 128.183 1.91443 126.912C1.91443 125.64 1.59827 124.532 1.59827 123.26C1.59827 121.947 1.63779 120.634 1.59827 119.362C1.55875 118.706 1.32168 118.132 1.24265 117.475C1.16361 116.778 1.36124 116.039 1.28221 115.342C1.16365 114.029 0.728881 112.757 0.610328 111.444C0.373222 109.024 0.0175634 106.644 0.0175634 104.182C0.0175634 101.557 0.0175634 98.9719 0.0175634 96.3462C0.0175634 95.6897 -0.0219543 95.0332 0.0175634 94.4178C0.0570811 93.7203 0.333763 93.105 0.37328 92.4486C0.452316 91.0946 0.37328 89.7407 0.37328 88.3868C0.37328 82.6019 1.20317 76.8581 2.27015 71.1963C3.33712 65.4935 4.60169 59.7086 6.4195 54.2109C8.35587 48.5081 9.93654 42.8054 12.3076 37.2667C14.5206 32.0562 17.8401 27.3791 21.7128 23.3173C22.4637 22.5378 23.333 22.0455 24.1629 21.348C25.1508 20.5275 26.0598 19.5838 27.0477 18.7222C29.1421 16.958 31.3551 15.1119 33.6867 13.6759C34.9908 12.8964 35.9787 11.8296 37.2037 10.886C38.2312 10.0655 39.4562 9.32696 40.3651 8.42436C42.341 6.49607 44.7121 4.81395 47.1622 3.7062C49.2961 2.76257 51.8252 2.5574 54.0777 1.8189C55.3818 1.40863 56.6859 1.28559 58.0295 1.03942C58.6618 0.916339 59.0965 0.75225 59.7288 0.75225C60.5587 0.75225 61.428 0.793277 62.2579 0.75225C62.9297 0.711222 63.483 0.464998 64.1153 0.382943C64.9452 0.300888 65.8145 0.382943 66.6444 0.382943C68.3436 0.382943 69.9638 0.0547032 71.6631 0.0547032C73.0067 0.0547032 74.4294 -0.0683791 75.773 0.0547032C77.1166 0.177786 78.4996 0.58808 79.8432 0.793217C85.0201 1.57274 89.9993 3.54205 94.7809 5.71651C96.0455 6.29089 97.2706 6.78324 98.4561 7.48071C98.8908 7.72687 99.365 7.891 99.7997 8.21922C100.353 8.6295 100.748 9.16283 101.341 9.53208C103.593 10.927 105.293 13.1425 107.506 14.6605C108.494 15.358 109.323 16.2606 110.153 17.2042C110.944 18.1068 111.853 18.9274 112.682 19.7889C113.512 20.6505 114.461 21.2659 115.093 22.2095C115.844 23.3173 116.792 24.384 117.741 25.3276C120.981 28.6509 123.747 32.5074 125.17 37.0205C125.486 37.9641 125.881 38.5385 126.356 39.359C126.83 40.1795 127.067 41.1232 127.462 42.0258C127.778 42.7643 128.292 43.6669 128.49 44.4874C128.766 45.4721 128.845 46.6619 129.043 47.6876C129.359 49.2877 129.477 50.9287 129.517 52.5698C129.517 53.4314 129.754 54.2109 129.794 55.0725C129.873 56.0982 129.833 57.1649 129.833 58.2316C129.833 59.6266 129.833 60.9395 130.07 62.2934C130.386 63.9345 130.149 65.8627 130.149 67.5448C130.149 69.5141 130.465 71.3604 130.465 73.3297C130.465 75.0529 130.623 76.6939 130.742 78.4171C131.019 81.7813 131.295 85.0636 131.69 88.3868C131.888 89.9458 132.086 91.5459 132.283 93.1049C132.481 94.5409 132.362 96.0589 132.362 97.4948C132.362 98.6436 132.678 99.6693 132.678 100.818C132.678 102.09 132.678 103.239 132.915 104.511C133.192 105.782 132.876 107.136 133.153 108.449C133.39 109.721 133.192 110.993 133.311 112.265C133.35 112.88 133.627 113.455 133.666 114.07C133.706 114.726 133.666 115.383 133.666 116.039C133.666 117.188 133.982 118.255 133.982 119.362C134.022 121.455 133.982 123.547 133.982 125.64C133.982 129.825 133.429 133.886 132.244 137.866C132.007 138.727 131.849 139.466 131.69 140.286C131.453 141.476 130.979 142.584 130.742 143.815C130.347 145.702 129.794 147.548 129.161 149.395C128.885 150.256 128.766 151.241 128.134 151.897C127.778 152.267 127.383 152.39 126.988 152.759C126.237 153.456 125.921 154.441 125.012 155.056C124.38 155.467 123.985 155.631 123.273 155.672C122.443 155.713 121.772 156 120.902 156C119.282 156 117.662 156 116.041 156C115.212 156 114.619 155.713 113.868 155.672C112.959 155.631 111.932 155.508 111.023 155.261C109.126 154.769 107.348 153.949 105.53 153.21C104.147 152.636 102.566 152.595 101.341 151.692C100.906 151.364 100.63 150.831 100.392 150.379C100.037 149.641 100.155 149.025 99.9182 148.246C99.7997 147.836 99.6812 147.712 99.6812 147.179C99.6812 146.81 99.6812 146.4 99.6812 146.03C99.6812 145.046 99.6812 144.061 99.6812 143.117C99.6812 142.01 99.6812 140.943 99.6812 139.835C99.6812 138.892 99.9182 138.03 99.9972 137.086C100.037 135.855 100.669 134.625 100.906 133.394C101.104 132.286 101.301 131.26 101.578 130.153C102.922 125.024 103.989 119.855 105.767 114.891C106.043 114.152 106.083 113.372 106.36 112.675C106.557 112.06 107.031 111.608 107.15 110.993C107.348 110.172 107.427 109.557 107.545 108.736C107.98 105.7 109.126 102.664 109.64 99.6693C109.798 98.7257 109.877 97.7821 110.114 96.8385C110.39 95.6897 110.667 94.2537 110.667 93.0229C110.667 91.5459 111.023 90.2741 111.26 88.8381C111.418 87.8535 111.299 86.7867 111.299 85.802C111.299 83.9968 111.26 82.2327 111.299 80.4275C111.299 79.5249 111.615 78.7453 111.615 77.8017C111.615 76.6939 111.694 75.7094 111.853 74.6016C112.169 72.4682 111.932 70.0475 111.932 67.8731C111.932 66.4371 112.406 64.4267 111.181 63.4421C110.904 63.2369 110.746 63.1959 110.43 63.0318C110.035 62.8677 109.798 62.9088 109.402 62.7857C109.086 62.7036 108.968 62.4985 108.652 62.4164C108.454 62.3754 108.217 62.4985 107.98 62.4575C107.782 62.4164 107.585 62.2113 107.466 62.2113C105.727 61.801 104.66 61.5548 103.712 59.8727C103.435 59.4214 103.159 59.0522 102.922 58.5599C102.843 58.4368 102.922 58.2316 102.843 58.1085C102.724 57.9444 102.566 57.9034 102.447 57.7393C102.052 57.1649 101.736 56.4675 101.38 55.8931C101.025 55.2777 99.9183 53.5545 99.1674 53.3904C98.5352 54.8673 99.5626 57.0828 100.037 58.4368C100.432 59.6266 101.262 61.1856 100.946 62.4575C100.313 62.5395 99.7602 62.7856 99.1279 62.8267C98.6142 62.8677 98.0609 62.8267 97.5472 62.8267C96.085 62.8267 94.6229 62.8267 93.1608 62.8267C92.3309 62.8267 91.6985 63.1139 90.9082 63.1549C90.1969 63.1959 89.4856 63.1549 88.7743 63.1549C87.5097 63.1549 86.1661 63.3191 85.0201 62.7857C83.9531 62.2934 83.1627 60.324 82.8071 59.2573C82.3724 57.9444 81.503 56.8777 80.8312 55.6879C80.1594 54.4161 79.6457 53.2674 79.29 51.8314C78.9344 50.3954 78.4602 48.9595 78.0255 47.5235C77.5908 46.0465 76.8399 44.8567 76.2076 43.4617C75.8915 42.8053 75.7334 42.1079 74.9431 41.9437C74.2318 41.7796 73.6785 42.2309 73.4414 42.9284C73.2438 43.5028 73.4019 44.4465 73.4019 45.0619C73.4019 46.3748 73.2439 47.7696 73.4019 49.0825C73.6786 51.5031 74.1133 53.8827 74.5875 56.2623C74.9826 58.3137 75.4964 60.3241 75.852 62.3754C76.1286 64.0986 76.5634 65.6576 76.5634 67.4218C76.5634 68.4065 76.8399 69.9244 76.3262 70.745C75.5754 72.0168 73.0462 72.263 71.7421 72.304C69.7662 72.3861 67.7509 72.304 65.7355 72.304C63.7596 72.304 61.3095 72.181 59.8868 70.4989C59.4916 70.0476 59.4522 69.5552 59.2546 68.9808C59.0175 68.2423 58.5433 67.5449 58.3457 66.8064C58.0295 65.5756 58.3061 63.8934 58.3061 62.6215C58.3061 59.9958 58.1085 57.5752 57.6343 54.9905C57.2392 52.775 56.2512 50.7647 55.7375 48.5492C55.2237 46.4158 54.8681 44.0361 53.9987 42.0258C53.7616 41.4514 52.9317 39.8514 52.1019 40.4258C51.5486 40.795 51.6672 42.1488 51.5091 42.7232C51.1139 44.0771 50.9559 45.4721 50.7187 46.9081C50.205 50.0672 50.1655 53.1032 50.1655 56.3444C50.1655 57.6983 49.8494 58.9702 49.8494 60.3241C49.8494 60.8164 49.8099 61.1856 49.6913 61.6369C49.5728 62.1703 49.6518 62.7446 49.5728 63.2369C49.4542 63.8113 48.7429 64.5088 48.3082 64.878C47.5969 65.4524 46.4904 65.1653 45.621 65.1653C43.2104 65.1653 41.195 64.0575 38.8634 63.8524C37.7174 63.7703 36.4924 63.4421 35.3069 63.278C33.8842 63.0729 32.5011 62.8267 31.0785 62.4575C29.1816 61.9651 27.3639 61.8831 25.388 61.8831C23.9258 61.8831 22.7403 61.5139 22.5032 63.4011C22.3846 64.2627 22.5032 65.2473 22.5032 66.1089C22.5032 67.2987 22.7798 68.3244 22.8193 69.4321C22.9774 72.4271 22.8193 75.4632 22.8193 78.4582C22.8193 80.3454 23.0959 82.1507 23.1354 84.0379C23.1749 85.5559 23.0959 87.074 23.1354 88.5509C23.1354 91.7511 22.5032 94.8691 22.5032 98.0282C22.5032 100.859 22.8983 103.649 23.5306 106.398C24.0443 108.695 24.6766 111.157 25.6646 113.29C26.0598 114.193 26.692 114.932 27.1267 115.793C27.6009 116.778 27.8775 117.844 28.1937 118.87C28.3913 119.527 28.6679 120.142 28.826 120.798C29.0236 121.455 29.3792 122.399 29.4582 123.096C29.5373 123.711 29.6953 124.122 29.7744 124.696C29.8534 125.229 29.8535 126.337 30.4067 126.624C30.2091 125.558 29.7744 124.614 29.1422 123.711" fill="#0032C9"/>
<path d="M25.0716 122.03C27.3636 123.876 29.9718 125.148 32.3823 126.912C34.951 128.8 37.322 130.974 39.5745 133.272C44.1586 137.908 48.2684 143.036 52.892 147.631C54.5517 149.272 56.33 150.872 58.4244 151.98C60.5584 153.088 62.8899 153.58 65.2215 153.908C70.5168 154.647 76.2074 154.483 80.7125 151.529C85.2965 148.534 87.9046 143.2 90.7499 138.4C92.8839 134.831 95.2549 131.466 97.6259 128.102C101.38 122.769 105.095 117.476 108.849 112.143" stroke="#0032C9" stroke-width="2" stroke-miterlimit="10"/>
</svg>
