<svg width="121" height="135" viewBox="0 0 121 135" fill="none" xmlns="http://www.w3.org/2000/svg">
<path d="M90.2693 62.825C89.6319 62.8958 89.03 62.825 88.3927 62.825C87.4013 62.7896 86.4452 62.7542 85.5246 62.8604L84.8519 62.8958C83.7897 63.0374 82.8691 63.0729 81.8069 63.3207C81.0987 63.4978 80.8155 63.4623 79.5408 63.8164C79.0805 63.958 78.6203 64.0288 78.16 64.135C77.3102 64.3829 76.4958 64.737 75.646 64.9849L75.3627 65.0557C74.8316 65.2327 73.4507 65.3743 72.8842 65.3743C72.8134 65.3743 71.8574 65.3743 71.7866 65.3743L72.3531 64.4183C72.4239 64.3121 72.4947 64.2059 72.6009 64.135C72.955 63.8164 73.4153 63.604 73.8402 63.4623L74.1235 63.3561C74.9732 63.1082 75.823 62.8604 76.6728 62.6126C77.1331 62.5064 77.558 62.3647 78.0183 62.2231C79.2929 61.869 79.8594 61.7982 80.7446 61.5857C81.8423 61.3379 82.8691 61.1254 83.9667 60.9838L84.5333 60.913C85.5247 60.7714 86.5869 60.8068 87.5783 60.8422C88.2156 60.8422 88.8175 60.8776 89.4194 60.8422C89.4194 60.8422 90.765 60.8068 90.9066 61.7274C91.0483 62.6834 90.5879 62.7542 90.2693 62.825Z" fill="#0032C9"/>
<path d="M45.231 61.019C44.7707 60.9481 44.275 60.9481 43.8147 60.9127C43.4606 60.8773 43.1419 60.8773 42.7878 60.8419C42.0443 60.7711 41.2299 60.6649 40.4155 60.6649C39.4595 60.6649 38.5744 60.594 37.6184 60.594L36.1312 60.5232C35.9188 60.5232 35.5647 60.5232 35.3523 60.5232C34.892 60.5586 34.2901 60.5586 33.9714 60.5232C33.7944 60.5232 33.6173 60.5586 33.4403 60.5232C33.0154 60.4524 31.9178 60.6294 31.3159 60.9835L30.6431 62.0812C31.8115 62.0812 32.4843 61.9041 32.9092 61.9041C33.0862 61.9041 33.5465 61.9041 33.7589 61.9395C34.1838 61.9749 34.6088 61.9749 35.1399 62.0103C35.3523 62.0103 35.6355 62.0103 35.8126 62.0103L37.3351 62.0812C38.2911 62.0812 39.1763 62.152 40.1677 62.2228C40.9467 62.2582 41.6902 62.3644 42.4692 62.4706C42.8233 62.506 43.1773 62.5414 43.5314 62.5768C43.9917 62.6123 44.4874 62.6477 44.9831 62.6831C45.8328 62.7539 46.7181 62.7893 47.5678 62.9309L47.8511 62.9664C49.3382 63.1788 52.879 63.5329 54.4015 63.5683L54.2599 63.108C54.1183 62.8247 54.012 62.6477 53.6933 62.6123C52.1354 62.3644 49.4445 61.7979 48.1344 61.5146C48.1344 61.6208 45.9745 61.1252 45.231 61.019Z" fill="#0032C9"/>
<path d="M83.3646 73.0912C83.6125 73.4453 84.2144 73.8348 84.5684 73.9056C84.9579 73.9764 85.5953 73.9057 85.9139 73.764C86.3742 73.5516 86.7283 73.1267 86.7991 72.5956C86.9408 71.2855 86.3388 70.5065 85.3828 70.4357C84.9933 70.4003 84.4622 70.4003 84.1436 70.5419C83.6479 70.7544 83.1522 71.4271 83.1876 71.9937C83.1876 72.2415 83.1168 72.7726 83.3646 73.0912Z" fill="#0032C9"/>
<path d="M41.1593 73.0912C41.4072 73.4453 42.009 73.8348 42.3631 73.9056C42.7526 73.9764 43.39 73.9057 43.7086 73.764C44.1689 73.5516 44.523 73.1267 44.5938 72.5956C44.7354 71.2855 44.1335 70.5065 43.1775 70.4357C42.788 70.4003 42.2569 70.4003 41.9382 70.5419C41.4425 70.7544 40.9469 71.4271 40.9823 71.9937C40.9823 72.2415 40.9114 72.7726 41.1593 73.0912Z" fill="#0032C9"/>
<path d="M57.942 71.6429L59.5354 71.6074C59.5354 71.6074 61.589 81.0966 59.4999 88.2489C57.4109 95.4012 57.3755 93.7016 57.3755 93.7016C57.3755 93.7016 60.1019 80.4239 57.942 71.6429Z" fill="#0032C9"/>
<path d="M74.1942 107.262C73.8401 107.935 71.2908 108.36 69.3788 107.864C67.0419 107.262 63.6428 107.05 62.7222 107.298C62.4389 107.368 61.9786 107.723 61.3767 108.324C61.2351 108.466 61.1289 108.82 61.1289 108.82C60.881 108.643 60.4561 108.289 59.748 107.935C58.7566 107.439 58.1192 107.014 56.2781 107.014C55.3929 107.014 54.012 107.9 52.8081 108.714C51.9229 109.351 50.8607 109.351 50.0818 109.493C49.9755 109.528 49.8693 109.528 49.763 109.528C46.7534 109.387 44.9831 107.616 44.5228 107.014L43.9917 106.377C45.6204 106.696 48.7717 109.139 50.0818 108.891C50.7545 108.749 51.4272 108.36 52.277 107.758C53.5517 106.873 54.3306 106.094 56.2781 106.094C58.1901 106.094 59.6418 106.837 60.704 107.404C60.8456 107.475 60.9518 107.546 61.0226 107.581C61.1288 107.298 61.3413 106.873 61.9432 106.59C63.0409 106.058 68.0687 106.59 70.264 106.767" fill="#0032C9"/>
<path d="M61.5538 115.581C54.4369 115.581 49.6924 109.491 49.657 109.42L50.8254 109.208C50.8608 109.278 55.57 115.156 63.7137 114.342C67.4315 113.952 69.3434 111.261 70.8305 109.491C71.3263 108.924 71.645 108.287 72.1407 108.039L73.4861 107.756C73.2028 107.897 71.9991 109.208 71.7866 109.774C71.1847 111.509 70.4057 114.519 64.174 115.439C63.3951 115.51 62.262 115.581 61.5538 115.581Z" fill="#0032C9"/>
<path d="M61.8371 110.66C61.5185 110.66 61.129 110.554 60.4208 110.412L60.2438 110.377C59.2524 110.129 56.5614 110.058 52.2771 110.094C52.0293 110.094 51.6752 110.058 50.7192 109.527L51.1795 109.031C51.2149 109.031 52.0292 109.102 52.2417 109.102C56.5614 109.067 59.2878 109.562 60.35 109.81L60.5271 109.846C61.908 110.164 61.9079 110.164 62.6869 109.81L62.9702 109.669C63.6075 109.385 64.8821 109.385 66.2276 109.385C67.5377 109.385 69.7684 107.686 70.3704 107.367L72.4948 108.323C71.7866 108.713 67.7501 109.987 66.2276 109.987C65.0238 109.987 63.7491 109.987 63.218 110.235L62.9348 110.377C62.4391 110.554 62.1912 110.66 61.8371 110.66Z" fill="#0032C9"/>
<path d="M22.2516 102.516C23.6679 103.579 25.4383 104.676 26.3589 106.269C26.8546 107.155 27.0316 108.146 27.1378 109.137C27.6336 112.784 27.8814 116.361 27.8814 120.043C27.8814 121.459 27.9876 122.911 27.669 124.256C27.5981 124.54 27.4211 124.929 27.3857 125.177C27.3149 125.496 27.3857 125.814 27.3149 126.098C27.1733 126.7 26.6776 127.16 26.3589 127.62C26.0402 128.116 25.934 128.47 25.4029 128.753C25.1197 128.895 24.6948 129.001 24.4115 129.036C23.9866 129.107 23.8096 129.249 23.4555 129.32C22.889 129.461 22.0746 129.32 21.4727 129.32C20.7291 129.32 19.9856 129.32 19.2066 129.32C18.4985 129.32 17.7903 129.32 17.0822 129.32C16.7635 129.32 16.4094 129.284 16.0908 129.32C15.6305 129.355 15.2764 129.568 14.8161 129.603C14.462 129.638 14.1787 129.568 13.8246 129.638C13.4706 129.745 13.2228 129.851 12.8333 129.851C12.4438 129.851 12.0897 129.815 11.7002 129.851C11.2753 129.851 10.9921 130.028 10.5672 130.099C9.22168 130.347 7.59292 130.134 6.21203 130.134C5.64552 130.134 4.76038 130.311 4.22927 130.134C3.62734 129.957 3.27325 129.284 3.06081 128.789C2.49429 127.514 2.28186 126.098 2.28186 124.646C2.28186 123.194 2.28186 121.743 2.28186 120.291C2.28186 119.618 2.28186 118.945 2.28186 118.273C2.28186 117.281 2.03399 116.396 1.99859 115.44C1.96318 114.519 1.71531 113.705 1.71531 112.784C1.71531 111.687 1.71531 110.625 1.71531 109.527C1.71531 108.429 1.43203 107.473 1.43203 106.376C1.43203 105.243 1.46744 104.11 1.43203 103.012C1.39663 102.445 1.18422 101.95 1.1134 101.383C1.04259 100.781 1.21966 100.144 1.14884 99.542C1.04262 98.409 0.65307 97.3114 0.546848 96.1783C0.334403 94.0893 0.0157366 92.0357 0.0157366 89.9112C0.0157366 87.6452 0.0157366 85.4146 0.0157366 83.1485C0.0157366 82.582 -0.0196708 82.0154 0.0157366 81.4843C0.051144 80.8823 0.299048 80.3513 0.334455 79.7848C0.40527 78.6163 0.334455 77.4478 0.334455 76.2794C0.334455 71.2869 1.07803 66.3299 2.03403 61.4437C2.99003 56.5221 4.12307 51.5296 5.75181 46.785C7.48677 41.8634 8.90303 36.9418 11.0275 32.1618C13.0103 27.6651 15.9845 23.6286 19.4545 20.1233C20.1272 19.4505 20.9061 19.0256 21.6497 18.4237C22.5349 17.7156 23.3493 16.9011 24.2345 16.1576C26.1111 14.6351 28.0939 13.0418 30.1829 11.8025C31.3514 11.1298 32.2365 10.2092 33.3341 9.39482C34.2547 8.68667 35.3524 8.04934 36.1667 7.27037C37.9371 5.60623 40.0615 4.15452 42.2568 3.19852C44.1688 2.38415 46.4349 2.20708 48.4531 1.56975C49.6215 1.21567 50.79 1.10948 51.9938 0.89704C52.5604 0.790817 52.9499 0.649205 53.5164 0.649205C54.2599 0.649205 55.0389 0.684613 55.7824 0.649205C56.3843 0.613798 56.8801 0.401301 57.4466 0.330487C58.1902 0.259672 58.9691 0.330487 59.7127 0.330487C61.2352 0.330487 62.6869 0.0472099 64.2094 0.0472099C65.4133 0.0472099 66.688 -0.0590124 67.8918 0.0472099C69.0957 0.153432 70.3349 0.507524 71.5387 0.684561C76.1771 1.3573 80.6384 3.05686 84.9227 4.93345C86.0558 5.42915 87.1534 5.85406 88.2156 6.45599C88.6051 6.66843 89.03 6.81008 89.4195 7.09334C89.9152 7.44741 90.2693 7.90769 90.8004 8.22636C92.8186 9.43021 94.3411 11.3422 96.3239 12.6523C97.2091 13.2542 97.9527 14.0332 98.6963 14.8475C99.4044 15.6265 100.219 16.3347 100.962 17.0782C101.706 17.8218 102.556 18.3528 103.122 19.1672C103.795 20.1232 104.645 21.0438 105.494 21.8582C108.398 24.7262 110.876 28.0545 112.151 31.9493C112.434 32.7637 112.788 33.2594 113.213 33.9675C113.638 34.6757 113.851 35.49 114.205 36.269C114.488 36.9063 114.948 37.6853 115.125 38.3935C115.373 39.2432 115.444 40.2701 115.621 41.1553C115.904 42.5361 116.01 43.9524 116.046 45.3687C116.046 46.1123 116.258 46.785 116.294 47.5286C116.365 48.4138 116.329 49.3343 116.329 50.2549C116.329 51.4588 116.329 52.5919 116.542 53.7603C116.825 55.1766 116.612 56.8407 116.612 58.2924C116.612 59.992 116.896 61.5853 116.896 63.2849C116.896 64.772 117.037 66.1883 117.143 67.6754C117.391 70.5788 117.639 73.4114 117.993 76.2794C118.17 77.6249 118.347 79.0058 118.524 80.3512C118.701 81.5905 118.595 82.9006 118.595 84.1398C118.595 85.1312 118.878 86.0164 118.878 87.0079C118.878 88.1055 118.878 89.0969 119.091 90.1945C119.339 91.2922 119.056 92.4606 119.303 93.5937C119.516 94.6913 119.339 95.7889 119.445 96.8865C119.48 97.4176 119.728 97.9134 119.764 98.4445C119.799 99.011 119.764 99.5775 119.764 100.144C119.764 101.135 120.047 102.056 120.047 103.012C120.082 104.818 120.047 106.624 120.047 108.429C120.047 112.041 119.551 115.546 118.489 118.981C118.277 119.724 118.135 120.362 117.993 121.07C117.781 122.097 117.356 123.053 117.143 124.115C116.789 125.744 116.294 127.337 115.727 128.93C115.479 129.674 115.373 130.524 114.807 131.09C114.488 131.409 114.134 131.515 113.78 131.834C113.107 132.436 112.824 133.285 112.009 133.816C111.443 134.171 111.089 134.312 110.452 134.348C109.708 134.383 109.106 134.631 108.327 134.631C106.875 134.631 105.424 134.631 103.972 134.631C103.228 134.631 102.697 134.383 102.025 134.348C101.21 134.312 100.29 134.206 99.4752 133.993C97.7757 133.569 96.1823 132.86 94.5535 132.223C93.3143 131.727 91.898 131.692 90.8004 130.913C90.4109 130.63 90.163 130.17 89.9506 129.78C89.6319 129.143 89.7381 128.612 89.5257 127.939C89.4195 127.585 89.3133 127.479 89.3133 127.018C89.3133 126.7 89.3133 126.345 89.3133 126.027C89.3133 125.177 89.3133 124.327 89.3133 123.513C89.3133 122.557 89.3133 121.636 89.3133 120.68C89.3133 119.866 89.5257 119.122 89.5965 118.308C89.6319 117.246 90.1984 116.184 90.4109 115.121C90.5879 114.165 90.7649 113.28 91.0128 112.324C92.2166 107.898 93.1727 103.437 94.766 99.1526C95.0139 98.5153 95.0493 97.8425 95.2971 97.2406C95.4742 96.7094 95.899 96.32 96.0053 95.7889C96.1823 95.0808 96.2531 94.5497 96.3593 93.8415C96.7488 91.2214 97.7757 88.6012 98.236 86.0164C98.3776 85.2021 98.4484 84.3877 98.6608 83.5734C98.9087 82.5819 99.1565 81.3427 99.1565 80.2804C99.1565 79.0058 99.4752 77.9082 99.6876 76.6689C99.8292 75.8191 99.723 74.8985 99.723 74.0487C99.723 72.4908 99.6876 70.9683 99.723 69.4104C99.723 68.6314 100.006 67.9586 100.006 67.1443C100.006 66.1883 100.077 65.3386 100.219 64.3826C100.502 62.5414 100.29 60.4523 100.29 58.5757C100.29 57.3364 100.714 55.6014 99.6168 54.7517C99.369 54.5746 99.2274 54.5392 98.9441 54.3976C98.59 54.256 98.3775 54.2914 98.0235 54.1852C97.7402 54.1144 97.634 53.9373 97.3508 53.8665C97.1737 53.8311 96.9613 53.9373 96.7489 53.9019C96.5718 53.8665 96.3948 53.6894 96.2885 53.6894C94.7306 53.3354 93.7746 53.1229 92.9248 51.6712C92.677 51.2818 92.4291 50.9631 92.2167 50.5382C92.1459 50.432 92.2167 50.2549 92.1459 50.1487C92.0397 50.0071 91.898 49.9717 91.7918 49.8301C91.4377 49.3344 91.1544 48.7324 90.8358 48.2367C90.5171 47.7056 89.5257 46.2185 88.853 46.0768C88.2865 47.3515 89.2071 49.2635 89.6319 50.432C89.986 51.4588 90.7296 52.8043 90.4463 53.9019C89.8798 53.9727 89.3841 54.1851 88.8176 54.2206C88.3573 54.256 87.8615 54.2206 87.4013 54.2206C86.0912 54.2206 84.7812 54.2206 83.4711 54.2206C82.7275 54.2206 82.1609 54.4684 81.4528 54.5038C80.8155 54.5392 80.1782 54.5038 79.5408 54.5038C78.4078 54.5038 77.2039 54.6455 76.1771 54.1852C75.2211 53.7603 74.5129 52.0607 74.1943 51.1401C73.8048 50.0071 73.0258 49.0865 72.4239 48.0597C71.822 46.9621 71.3617 45.9707 71.043 44.7314C70.7244 43.4922 70.2995 42.2529 69.91 41.0137C69.5205 39.739 68.8478 38.7121 68.2812 37.5083C67.998 36.9418 67.8564 36.3398 67.1482 36.1982C66.5109 36.0566 66.0152 36.446 65.8027 37.048C65.6257 37.5437 65.7674 38.3581 65.7674 38.8892C65.7674 40.0223 65.6257 41.226 65.7674 42.3591C66.0152 44.4481 66.4047 46.5017 66.8296 48.5554C67.1837 50.3257 67.644 52.0608 67.9626 53.8311C68.2105 55.3182 68.6 56.6637 68.6 58.1863C68.6 59.036 68.8478 60.3461 68.3875 61.0542C67.7148 62.1518 65.4486 62.3643 64.2802 62.3997C62.5098 62.4705 60.7041 62.3997 58.8983 62.3997C57.1279 62.3997 54.9326 62.2935 53.658 60.8418C53.3039 60.4523 53.2685 60.0274 53.0915 59.5317C52.8791 58.8943 52.4542 58.2925 52.2771 57.6551C51.9939 56.5929 52.2417 55.1411 52.2417 54.0435C52.2417 51.7774 52.0647 49.6885 51.6398 47.4578C51.2857 45.5458 50.4005 43.8108 49.9402 41.8988C49.4799 40.0577 49.1613 38.004 48.3823 36.269C48.1699 35.7733 47.4263 34.3925 46.6827 34.8882C46.187 35.2068 46.2932 36.3752 46.1516 36.8709C45.7975 38.0394 45.6559 39.2433 45.4435 40.4825C44.9832 43.2089 44.9478 45.8291 44.9478 48.6263C44.9478 49.7947 44.6645 50.8923 44.6645 52.0608C44.6645 52.4856 44.6291 52.8043 44.5229 53.1938C44.4167 53.6541 44.4875 54.1497 44.4167 54.5746C44.3105 55.0703 43.6731 55.6723 43.2837 55.9909C42.6463 56.4866 41.6549 56.2388 40.8759 56.2388C38.7161 56.2388 36.9103 55.2828 34.8212 55.1057C33.7944 55.0349 32.6968 54.7517 31.6346 54.6101C30.3599 54.433 29.1207 54.2206 27.846 53.9019C26.1464 53.477 24.5177 53.4063 22.7474 53.4063C21.4373 53.4063 20.3751 53.0876 20.1626 54.7163C20.0564 55.4599 20.1626 56.3096 20.1626 57.0531C20.1626 58.08 20.4105 58.9652 20.4459 59.9212C20.5875 62.5059 20.4459 65.1261 20.4459 67.7108C20.4459 69.3396 20.6937 70.8975 20.7291 72.5263C20.7645 73.8363 20.6937 75.1464 20.7291 76.4211C20.7291 79.1829 20.1626 81.8738 20.1626 84.6001C20.1626 87.0432 20.5166 89.451 21.0831 91.8233C21.5434 93.8061 22.11 95.9305 22.9952 97.7717C23.3493 98.5506 23.9158 99.188 24.3053 99.9316C24.7301 100.781 24.978 101.702 25.2612 102.587C25.4383 103.154 25.6862 103.685 25.8278 104.251C26.0048 104.818 26.3234 105.632 26.3943 106.234C26.4651 106.765 26.6067 107.119 26.6775 107.615C26.7484 108.075 26.7484 109.031 27.2441 109.279C27.0671 108.358 26.6776 107.544 26.1111 106.765" fill="#0032C9"/>
<path d="M22.4639 105.314C24.5175 106.908 26.8544 108.005 29.0142 109.528C31.3157 111.157 33.4401 113.033 35.4584 115.016C39.5656 119.017 43.248 123.443 47.3907 127.409C48.8778 128.825 50.4711 130.206 52.3477 131.162C54.2597 132.118 56.3487 132.543 58.4377 132.826C63.1823 133.463 68.2811 133.322 72.3175 130.772C76.4248 128.188 78.7616 123.585 81.311 119.442C83.223 116.362 85.3474 113.458 87.4718 110.555C90.8355 105.952 94.1639 101.384 97.5276 96.7812" stroke="#0032C9" stroke-width="2" stroke-miterlimit="10"/>
</svg>
