<svg width="172" height="150" viewBox="0 0 172 150" fill="none" xmlns="http://www.w3.org/2000/svg">
<path d="M64.9992 5.74608C64.1849 5.71068 63.3704 5.71069 62.5561 5.67529C60.29 3.72788 57.7407 3.51541 55.0143 4.36519C53.8459 3.79867 53.4564 2.09914 51.863 2.13454C53.9875 0.328767 56.7139 0.116322 59.2278 0.0100998C62.9456 -0.166937 64.893 1.9929 64.9992 5.74608Z" fill="#0032C9"/>
<path d="M55.0144 4.3669C59.1925 1.53431 61.0336 1.853 62.5561 5.677C59.6173 7.73063 57.4575 5.11045 55.0144 4.3669Z" fill="#0032C9"/>
<path d="M39.9663 94.584C41.3826 95.4692 41.8075 97.5582 42.4448 98.9745C43.4362 101.134 44.5693 103.223 45.8085 105.242C48.5349 109.668 51.8632 113.704 55.1561 117.74C59.4404 122.945 63.7955 128.292 69.6023 131.726C71.9746 133.143 74.5239 134.205 77.1087 135.232C83.1279 137.569 89.4659 139.551 95.91 139.516C102.354 139.481 109.082 137.108 113.153 132.08C114.853 129.991 116.021 127.548 117.296 125.211C120.306 119.759 124.059 114.766 127.777 109.809" stroke="#0032C9" stroke-width="2" stroke-miterlimit="10"/>
<path d="M142.541 145.961C138.009 149.325 133.123 151.166 128.237 147.165C123.244 143.058 116.411 139.659 119.42 131.055C120.341 127.018 117.26 123.796 117.154 119.972C117.154 118.733 117.331 117.6 118.252 116.679C120.093 115.653 122.005 114.697 122.607 112.395C123.35 111.227 123.315 109.917 123.315 108.642C123.457 106.447 122.607 104.393 122.678 102.198C124.094 92.0359 126.041 81.9448 126.254 71.5704C126.395 63.5683 124.236 56.4514 120.447 49.6178C119.349 47.5996 117.721 47.1039 115.596 47.0331C107.807 46.8206 100.796 44.4129 95.0953 38.9248C91.9441 35.9152 87.5535 35.0654 84.1544 32.4452C81.4634 39.987 79.3036 47.7058 74.4882 54.2916C76.0816 54.6457 77.8165 54.327 79.0912 55.6017C79.8702 58.6467 77.604 59.0008 75.7628 58.7529C71.4785 58.1864 68.7168 60.1338 66.4507 63.3559C63.5473 65.5158 59.9711 65.7282 56.6428 66.578C55.616 66.8612 54.5892 67.2153 53.4562 67.0737C53.1375 67.0383 52.7834 66.5779 52.4647 67.0382C52.925 67.2861 53.0313 67.6756 52.8543 68.1713C52.1461 69.0565 51.1901 69.2689 50.1279 69.3043C42.3029 68.0297 42.5507 68.0297 41.8425 76.0317C41.3114 82.2634 42.7278 88.4597 41.8072 94.656C40.3555 98.0906 39.4703 101.631 39.2224 105.349C38.1602 107.438 37.9832 109.421 38.6913 111.793C39.5411 114.555 39.9305 117.494 40.0722 120.397C40.2138 123.548 40.7804 127.231 37.3104 129.107C34.1592 130.842 32.4596 127.443 30.0873 126.381C28.0336 125.177 25.803 126.841 23.7139 126.062C18.0488 124.859 13.1271 122.486 9.83426 117.423C9.79885 117.175 9.76346 116.927 9.76346 116.679C9.16153 114.626 8.20551 112.714 7.53277 110.696C7.1787 109.563 6.89541 108.43 6.61215 107.297C6.50592 103.366 6.29355 99.4714 3.31933 96.4264C2.89444 95.612 2.50494 94.7977 2.15086 93.9479C1.08864 91.8943 1.12401 89.5928 0.699125 87.3975C-1.28369 75.6777 0.805347 65.0909 8.84283 55.9204C11.4984 52.8753 13.375 49.2637 14.4727 45.1919C16.1722 39.1018 17.4115 32.6223 20.4919 27.2404C23.6432 21.7522 26.3695 14.4937 35.5754 15.8391C38.5497 16.264 40.3201 12.4754 41.2761 10.1386C43.3651 5.18152 46.5872 2.52596 51.8275 2.17189C53.3854 1.49915 54.483 2.31353 55.5806 3.19871C57.8113 4.89827 60.3606 5.28775 63.087 4.96908C63.7951 5.0399 64.3617 5.42935 64.9636 5.78343C72.2929 6.52698 79.5869 8.15574 87.0224 6.24374C89.9966 5.46478 93.1479 5.78343 95.9097 7.73083C96.7595 8.33276 98.0695 8.54523 99.1317 8.50982C106.992 8.01412 114.853 7.37677 122.678 6.81025C128.201 6.91647 133.866 5.99588 138.823 9.46581C142.116 11.8735 144.382 15.0248 145.622 18.9196C146.507 20.4421 147.994 21.3627 149.481 21.7168C158.793 24.0891 160.741 34.1448 157.306 42.6071C156.35 44.944 155.075 47.1393 158.085 48.8743C159.112 50.3968 160.989 51.1403 161.661 52.9461C162.334 54.7165 163.113 56.4514 163.927 58.1864C165.662 61.7271 166.264 65.3741 164.99 69.1981C163.502 72.0307 163.644 74.1552 165.839 77.0586C168.707 80.918 169.415 85.8396 166.937 90.5134C165.273 93.6292 165.556 96.1432 167.928 98.9404C173.027 105.066 172.85 111.545 167.893 117.565C166.547 118.202 165.768 119.618 164.352 120.185C163.927 120.503 163.502 120.822 163.078 121.105C162.299 121.849 161.555 121.389 160.811 121.035C159.395 120.149 158.227 120.681 157.129 121.707C155.748 124.469 158.51 126.629 158.156 129.214C158.191 130.665 158.085 132.082 157.554 133.463C157.058 134.596 156.35 135.552 155.252 136.154C152.42 137.074 150.083 138.809 147.888 140.756C145.834 142.173 143.745 143.589 142.541 145.961Z" fill="#0032C9"/>
<path d="M142.542 145.96C141.869 141.888 145.091 141.215 147.711 140.011C150.367 138.914 152.774 137.497 154.828 135.444C155.501 134.807 156.174 134.205 156.846 133.567C157.944 132.045 157.271 130.274 157.59 128.61C157.979 126.344 156.28 124.291 156.882 121.954C158.05 120.573 159.148 119.086 161.343 119.794C161.662 120.608 162.334 120.927 163.149 121.033C161.343 122.414 160.352 123.653 160.847 126.521C162.193 134.452 156.775 141.711 148.703 143.127C146.259 143.623 144.914 145.818 142.542 145.96Z" fill="#0032C9"/>
<path d="M0.699253 87.3613C1.51362 89.3796 2.3634 91.3978 3.17777 93.3806C2.43422 94.9031 3.28403 96.2132 3.74432 97.5587C4.52329 100.958 5.93957 104.18 6.82475 107.508C7.63912 108.287 6.96642 109.916 8.45353 110.341C9.97605 112.217 10.1884 114.377 9.72814 116.643C2.08014 108.358 -1.17734 98.6563 0.699253 87.3613Z" fill="#0032C9"/>
<path d="M24.1745 125.035C25.9802 126.203 28.8482 122.592 30.0875 126.345C23.5725 131.302 16.6327 130.169 10.7904 123.229C9.76362 122.485 9.86986 121.423 10.5426 120.715C11.4278 119.794 12.4192 120.503 13.0919 121.175C15.5704 123.76 18.5447 125.318 22.0855 125.778C22.9706 125.884 23.7496 125.991 24.1745 125.035Z" fill="#0032C9"/>
<path d="M24.1744 125.033C24.5638 125.705 26.6529 126.661 23.9265 126.874C19.2527 127.228 15.4642 125.528 12.3483 122.094C11.9588 121.669 11.6756 120.288 10.755 121.386C10.4717 121.704 10.7904 122.625 10.8258 123.262C8.87837 121.598 8.59512 119.651 9.86979 117.42C14.3311 120.5 18.4383 124.289 24.1744 125.033Z" fill="#0032C9"/>
<path d="M160.847 52.8743C159.679 51.7059 157.802 51.0332 158.191 48.8379C163.68 50.7145 166.441 54.2906 166.548 60.062C166.583 63.1425 166.406 66.2583 165.096 69.1617C165.875 65.0899 164.211 61.5846 162.617 58.0438C163.538 55.8132 161.52 54.5739 160.847 52.8743Z" fill="#0032C9"/>
<path d="M139.178 10.5979C134.221 7.12794 127.989 9.07533 122.784 6.77385C129.582 3.97667 135.814 4.64941 141.337 9.78348C141.16 11.5539 140.24 11.2706 139.178 10.5979Z" fill="#0032C9"/>
<path d="M139.178 10.5956C139.921 10.454 140.842 10.7373 141.302 9.78125C144.985 11.7641 145.728 15.1278 145.693 18.8809C143.533 16.1192 141.338 13.3574 139.178 10.5956Z" fill="#0032C9"/>
<path d="M164.423 120.183C165.273 118.873 166.229 117.704 167.964 117.562C167.043 118.802 166.335 120.324 164.423 120.183Z" fill="#0032C9"/>
<path d="M6.47063 108.287C4.87729 104.852 3.39022 101.382 2.78829 97.5937C2.71748 96.7085 1.97389 95.4692 3.81507 95.54C7.14337 98.7621 8.52424 102.657 7.60365 107.26C7.88691 108.322 7.39122 108.535 6.47063 108.287Z" fill="#0032C9"/>
<path d="M119.031 116.854C120.624 111.968 122.217 107.082 123.846 102.195C123.775 104.638 125.085 106.905 124.519 109.383C123.173 110.374 123.917 111.968 123.386 113.207C122.572 115.19 121.828 117.243 119.031 116.854Z" fill="#0032C9"/>
<path d="M37.9834 23.1675C35.1863 23.0259 32.7432 22.9196 30.2292 22.778C32.8848 19.3435 34.0178 19.3789 37.9834 23.1675Z" fill="#0032C9"/>
<path d="M85.677 25.6439C89.5718 25.1482 91.2006 26.2458 89.324 30.3885C87.0225 29.6803 86.2081 27.91 85.677 25.6439Z" fill="#0032C9"/>
<path d="M154.828 135.479C153.872 139.197 151.393 140.578 147.711 140.046C149.658 137.851 151.464 135.443 154.828 135.479Z" fill="#0032C9"/>
<path d="M157.554 121.954C157.59 124.185 158.829 126.345 157.979 128.646C157.696 129.177 157.484 129.142 157.307 128.576C156.669 127.088 156.067 125.601 155.395 124.15C154.722 122.662 154.368 121.352 156.351 120.609C157.448 120.396 157.767 120.963 157.554 121.954Z" fill="#0032C9"/>
<path d="M55.5455 67.6032C55.8641 68.63 57.9177 68.984 56.6785 70.5773C56.0057 71.0022 55.2976 71.2501 54.5186 71.1793C53.8104 70.9314 53.0315 70.7898 52.7482 69.94C52.0047 69.4089 51.2257 68.8424 50.4822 68.3113C51.2257 67.9926 51.9693 67.7093 52.7482 67.3907C53.7042 66.6825 54.6603 66.6472 55.5455 67.6032Z" fill="#0032C9"/>
<path d="M15.9951 63.3541C14.1894 64.5934 12.3837 65.8327 10.5779 67.0719C11.6401 64.7704 12.6668 62.469 15.9951 63.3541Z" fill="#0032C9"/>
<path d="M38.8683 63.7441C40.3908 66.8246 40.32 68.4533 38.9745 70.6132C37.3812 68.3825 37.9831 66.683 38.8683 63.7441Z" fill="#0032C9"/>
<path d="M50.0571 21.7852C52.6065 22.2809 54.2706 22.7411 55.0495 24.5469C55.1557 24.8302 54.6601 25.7154 54.4476 25.7154C52.1461 25.7508 51.2964 23.945 50.0571 21.7852Z" fill="#0032C9"/>
<path d="M53.1729 17.5716C51.4733 15.9783 49.9154 15.0577 51.1901 13.1457C51.4733 12.7208 52.6772 12.4022 52.8542 12.5792C54.1643 13.9247 53.5269 15.4826 53.1729 17.5716Z" fill="#0032C9"/>
<path d="M134.327 125.245C132.061 125.316 131.388 124.006 131.034 122.625C130.821 121.811 131.742 121.492 132.344 121.705C133.937 122.342 134.079 123.723 134.327 125.245Z" fill="#0032C9"/>
<path d="M160.847 52.873C162.334 54.2893 165.06 55.2808 162.617 58.0426C162.334 56.2014 160.528 54.9267 160.847 52.873Z" fill="#0032C9"/>
<path d="M157.554 121.954C157.164 121.494 156.74 121.069 156.35 120.609C157.908 119.688 159.36 118.06 161.342 119.865C159.749 119.972 158.758 121.14 157.554 121.954Z" fill="#0032C9"/>
<path d="M127.847 14.7754C129.936 15.6252 130.645 16.7228 130.715 18.4578C129.193 17.8204 128.308 16.8998 127.847 14.7754Z" fill="#0032C9"/>
<path d="M55.5453 67.6025C54.6248 67.5317 53.6687 67.4608 52.7481 67.39C52.5711 67.0359 51.0486 67.1776 52.1462 66.4694C53.173 65.8321 54.6248 65.8321 55.8994 65.5488C55.7578 66.257 55.6516 66.9297 55.5453 67.6025Z" fill="#0032C9"/>
<path d="M131.246 115.899C131.353 116.784 131.105 117.315 130.361 117.421C129.653 117.492 129.193 117.103 129.193 116.395C129.157 115.722 129.476 115.226 130.184 115.049C131.069 114.766 131.034 115.58 131.246 115.899Z" fill="#0032C9"/>
<path d="M58.8027 54.0062C58.3778 52.2358 58.9089 50.9965 60.1482 51.0673C62.0956 51.209 60.7855 52.3066 60.3252 52.9439C60.0774 53.298 59.5462 53.4751 58.8027 54.0062Z" fill="#0032C9"/>
<path d="M38.3728 16.0848C38.9039 15.5891 39.258 14.9872 39.7537 14.8456C40.8513 14.5269 40.4618 15.5537 40.4618 15.9432C40.4618 16.4743 40.3556 17.2887 39.435 17.0408C39.081 16.9346 38.8331 16.5097 38.3728 16.0848Z" fill="#0032C9"/>
<path d="M6.47046 108.287C6.85994 107.932 7.24944 107.614 7.63892 107.26C7.92218 108.287 8.2054 109.349 8.48866 110.376C6.47044 110.942 6.85994 109.243 6.47046 108.287Z" fill="#0032C9"/>
<path d="M157.271 128.574C157.483 128.574 157.731 128.61 157.944 128.645C157.837 130.345 158.51 132.221 156.811 133.602C156.988 131.938 157.129 130.238 157.271 128.574Z" fill="#0032C9"/>
<path d="M153.942 26.3887C155.394 26.4595 156.032 27.0968 155.819 28.5839C154.58 28.3007 153.907 27.6987 153.942 26.3887Z" fill="#0032C9"/>
<path d="M35.1864 122.377C35.9653 122.306 36.1423 122.731 36.0361 123.191C35.9299 123.545 35.6112 124.041 35.2572 124.147C34.7615 124.289 34.3365 123.899 34.5136 123.368C34.6198 122.943 35.0093 122.66 35.1864 122.377Z" fill="#0032C9"/>
<path d="M136.876 108.535C138.293 109.137 138.682 110.058 138.08 111.297C136.522 110.837 136.982 109.562 136.876 108.535Z" fill="#0032C9"/>
<path d="M31.1495 96.3887C32.3888 96.9552 32.849 97.6988 32.1055 99.0088C31.1495 98.3361 30.6538 97.6279 31.1495 96.3887Z" fill="#0032C9"/>
<path d="M3.81505 95.5407C3.46097 96.2134 3.14234 96.9216 2.78827 97.5943C2.15093 96.1072 1.05325 94.6201 3.1777 93.3809C3.39014 94.1244 3.6026 94.8326 3.81505 95.5407Z" fill="#0032C9"/>
<path d="M104.549 101.313C104.761 101.667 105.009 102.021 105.222 102.375C106.107 104.499 105.363 105.845 103.31 106.624C102.425 107.084 101.469 107.19 100.477 107.12C99.3441 107.084 98.2111 106.978 96.3345 107.297C98.3173 107.12 99.5212 107.013 100.725 107.155C101.893 107.297 102.991 106.907 104.053 106.588C104.797 106.588 105.399 106.872 105.895 107.403C106.072 108.571 106.815 109.952 104.762 110.271C100.194 109.209 95.6264 109.067 90.988 109.527C90.4569 109.563 89.9258 109.633 89.3946 109.669C88.1908 109.846 86.9516 110.271 85.9601 109.173C85.7477 108.713 85.6769 108.217 85.7123 107.721C86.208 105.066 85.9601 102.304 86.5621 99.6486C86.9161 98.3739 87.6597 97.3825 88.8282 96.7451C89.076 96.7451 89.3593 96.7451 89.6071 96.6743C91.1651 95.6121 93.0416 96.993 94.635 96.0724C97.0427 95.5059 97.9278 98.8696 100.371 98.3031C100.513 101.171 102.814 100.852 104.549 101.313Z" fill="#0032C9"/>
<path d="M119.633 57.8312C109.542 54.9278 100.3 55.9901 90.5986 58.7164C94.5997 52.3077 115.632 51.6704 119.633 57.8312Z" fill="#0032C9"/>
<path d="M120.447 73.659C115.455 77.3768 101.54 79.3242 97.2554 76.6332C103.381 76.7041 108.904 75.1815 114.499 74.0839C116.128 73.7652 118.323 74.0131 118.748 71.5346C120.447 71.3221 119.633 73.1633 120.447 73.659Z" fill="#0032C9"/>
<path d="M83.5882 62.9644C81.3576 65.1243 83.3758 67.4258 83.3758 69.6564C83.3758 72.0287 84.5442 74.3656 83.9069 76.8088C81.2867 76.9858 83.2341 74.401 82.0303 73.6929C81.9594 73.1972 81.8886 72.7369 81.7824 72.2412C79.835 61.6898 79.835 61.6898 68.7879 62.2917C67.7965 60.8046 68.7879 60.5921 69.9564 60.4859C73.6387 60.4151 77.2857 60.7692 80.968 60.8046C81.2159 60.7692 81.4638 60.7692 81.7116 60.7338C83.0571 60.8754 83.0925 62.1146 83.5882 62.9644Z" fill="#0032C9"/>
<path d="M86.031 96.5666C81.1802 98.5848 76.9314 101.099 76.5065 107.153C76.4357 108.251 75.3026 107.755 74.5591 107.507C75.161 99.9303 77.4979 96.6728 83.2339 95.5398C84.3669 95.3273 85.4999 95.1503 86.031 96.5666Z" fill="#0032C9"/>
<path d="M113.082 61.3358C107.523 62.5043 102 63.6727 96.2639 63.4249C100.902 60.8755 106.036 60.8401 111.064 60.2028C111.985 60.0966 113.259 59.4238 113.082 61.3358Z" fill="#0032C9"/>
<path d="M83.0923 114.695C88.5096 115.297 92.8648 115.793 97.9988 116.359C93.2188 118.626 88.4034 118.094 83.0923 114.695Z" fill="#0032C9"/>
<path d="M82.0301 73.7285C82.6674 74.7553 83.2693 75.8176 83.9067 76.8444C83.4464 77.4109 82.9861 77.9774 82.5258 78.5794C79.0559 78.5085 75.5859 78.4377 72.1514 78.4023C70.4519 78.1191 68.1503 79.9248 67.1589 77.0214C70.8767 76.986 74.7007 76.3487 78.2415 77.0568C81.7114 77.7296 82.1717 76.4549 82.0301 73.7285Z" fill="#0032C9"/>
<path d="M74.2761 109.844C77.5336 110.658 80.8264 108.675 84.0839 109.844L84.0486 109.738C80.8973 112.499 77.4627 112.216 73.922 110.658C73.8512 110.623 73.8512 110.34 73.922 110.233C74.0282 110.056 74.1699 109.95 74.2761 109.844Z" fill="#0032C9"/>
<path d="M108.586 67.495C108.231 68.8405 107.523 69.9027 106.001 69.9027C104.231 69.9027 103.416 68.7343 103.558 67.0702C103.699 65.583 104.655 64.8749 106.213 64.9811C107.842 65.0873 108.444 66.0787 108.586 67.495Z" fill="#0032C9"/>
<path d="M92.9001 72.3121C91.7317 69.3733 90.2091 66.5053 90.8111 63C93.325 65.089 93.8561 68.0632 94.2456 71.1083C94.458 72.2413 93.8916 72.5246 92.9001 72.3121Z" fill="#0032C9"/>
<path d="M67.1588 76.9858C68.5043 78.5791 70.558 77.6585 72.1513 78.3666C71.0891 78.5791 70.0268 78.7915 68.9292 79.004C66.6631 80.0662 64.1847 78.4729 61.9186 79.5705C61.2812 79.5351 60.6085 79.4643 59.9712 79.4289C59.2276 79.0394 58.2007 79.1102 57.9529 78.0126C58.0591 77.8001 58.1653 77.6231 58.2362 77.4107C61.2458 77.9772 64.1492 76.136 67.1588 76.9858Z" fill="#0032C9"/>
<path d="M90.2447 86.4746C90.528 86.7225 90.8112 87.0057 91.059 87.2536C91.0944 88.8823 91.4131 90.5465 91.0945 92.069C90.3863 95.2911 92.0505 96.07 94.706 96.1409C93.1835 97.5926 91.3777 96.6365 89.6782 96.7428C90.9883 93.3791 87.7308 89.7675 90.2447 86.4746Z" fill="#0032C9"/>
<path d="M54.4478 70.5059C55.1913 70.5413 55.9349 70.5767 56.6784 70.5767C57.2095 72.8427 57.7407 75.1088 58.2718 77.3749L57.9177 77.5873C57.7053 78.4725 58.0947 79.5702 57.0679 80.2075C55.5808 78.8266 56.9971 76.6668 55.7225 75.2151C54.4478 73.905 54.8372 72.0992 54.4478 70.5059Z" fill="#0032C9"/>
<path d="M88.4036 85.8373C88.0141 82.8277 87.6246 79.818 87.0227 75.4629C89.6074 79.5347 90.7051 82.5444 89.6783 86.0143C89.2534 85.9435 88.8284 85.8727 88.4036 85.8373Z" fill="#0032C9"/>
<path d="M104.549 101.312C103.31 101.312 102.177 104.074 100.725 101.383C100.159 100.32 98.1405 99.6477 100.407 98.373C102.531 98.373 103.629 99.7185 104.549 101.312Z" fill="#0032C9"/>
<path d="M91.0237 109.562C95.6975 108.252 100.3 108.322 104.797 110.305C100.23 110.057 95.6266 109.81 91.0237 109.562Z" fill="#0032C9"/>
<path d="M114.109 59.4221C116.163 58.5015 118.11 57.9704 119.066 60.8384C117.756 62.2192 119.243 64.3437 117.791 65.6892C116.269 64.3083 117.721 61.936 116.092 60.6259C115.667 59.8824 114.428 60.4135 114.109 59.4221Z" fill="#0032C9"/>
<path d="M70.7705 60.2027C72.6825 58.751 74.8777 59.9194 76.8959 59.4591C78.4538 59.9902 80.2951 59.5299 81.7114 60.7338L81.5698 61.1586C77.9228 61.0524 74.2404 61.6898 70.7705 60.2027Z" fill="#0032C9"/>
<path d="M120.447 73.6562C119.881 72.9481 119.279 72.2399 118.712 71.5318C118.783 70.2217 118.854 68.9116 118.925 67.6016L119.35 67.7078C121.439 69.4073 120.695 71.5672 120.447 73.6562Z" fill="#0032C9"/>
<path d="M119.349 67.7069L118.924 67.6007C117.756 67.4237 118.004 66.4323 117.791 65.6887C118.499 64.1308 116.977 62.0063 119.066 60.8379C118.216 63.1748 120.518 65.37 119.349 67.7069Z" fill="#0032C9"/>
<path d="M102.991 105.951C104.514 105.243 105.328 104.11 105.222 102.375C106.603 103.898 106.143 105.703 105.895 107.438C105.222 107.403 104.549 107.332 103.841 107.297C103.452 106.943 102.779 106.73 102.991 105.951Z" fill="#0032C9"/>
<path d="M84.0837 109.703L84.1192 109.809C84.4378 108.818 85.4293 108.747 86.1728 108.357C86.9164 109.667 88.3326 109.349 89.4657 109.703C87.6599 111.296 85.8541 110.34 84.0837 109.703Z" fill="#0032C9"/>
<path d="M85.3937 65.0876C84.1898 64.8751 84.0128 63.7421 83.4463 62.9277C85.0042 62.9985 86.5622 63.0694 88.1555 63.1756C88.0493 65.123 86.1727 64.2378 85.3937 65.0876Z" fill="#0032C9"/>
<path d="M92.9001 72.311C93.3604 71.9215 93.7853 71.5321 94.2456 71.1426C95.2016 72.134 95.5557 73.3024 95.5203 74.9666C93.5729 75.0374 93.2542 73.6211 92.9001 72.311Z" fill="#0032C9"/>
<path d="M54.4479 70.506C55.4039 71.9577 55.5809 73.5864 55.7226 75.2506C53.8814 73.9405 53.7043 71.7098 52.7483 69.9395C53.3148 70.1519 53.8813 70.3289 54.4479 70.506Z" fill="#F8FAFC"/>
<path d="M114.109 59.4238C114.782 59.8133 115.455 60.2382 116.127 60.6277C115.101 60.8755 114.074 61.1234 113.083 61.3358C112.41 60.9464 111.737 60.5923 111.064 60.2028C112.056 59.955 113.082 59.6717 114.109 59.4238Z" fill="#0032C9"/>
<path d="M57.0679 80.2784C57.1741 79.3578 56.9971 78.3309 57.9177 77.6582C58.5904 78.2601 59.2986 78.8621 59.9713 79.464C59.0153 79.7473 58.2363 80.7387 57.0679 80.2784Z" fill="#0032C9"/>
<path d="M66.2739 66.2578C68.2921 66.7181 69.5314 67.7449 69.3897 69.6569C69.2835 71.4627 67.9026 72.1 66.3093 71.923C64.5389 71.7106 63.2289 70.6837 63.4059 68.7717C63.5476 67.0722 65.0346 66.5765 66.2739 66.2578Z" fill="#0032C9"/>
<path d="M70.7705 60.2031C74.382 60.5218 77.9582 60.8404 81.5697 61.1591C77.6395 61.9381 73.78 61.9027 69.9915 60.4864C70.2039 60.3447 70.4518 60.2385 70.7705 60.2031Z" fill="#0032C9"/>
<path d="M101.15 108.038C99.4506 107.967 97.7511 107.861 95.9099 107.79C96.8659 105.878 98.4946 106.126 100.017 106.126C100.584 106.657 101.469 107.011 101.15 108.038Z" fill="#0032C9"/>
<path d="M101.15 108.038C100.76 107.401 100.406 106.764 100.017 106.126C101.008 106.055 102 106.02 102.991 105.949C103.274 106.41 103.593 106.834 103.876 107.295C102.991 107.543 102.07 107.79 101.15 108.038Z" fill="#0032C9"/>
</svg>
