<svg width="172" height="156" viewBox="0 0 172 156" fill="none" xmlns="http://www.w3.org/2000/svg">
<path d="M64.9992 5.99837C64.1849 5.96141 63.3704 5.96143 62.5561 5.92446C60.29 3.89155 57.7407 3.66975 55.0143 4.55684C53.8459 3.96545 53.4564 2.1913 51.863 2.22826C53.9875 0.343201 56.7139 0.121429 59.2278 0.0105432C62.9456 -0.174267 64.893 2.0804 64.9992 5.99837Z" fill="#0032C9"/>
<path d="M55.0144 4.55876C59.1925 1.6018 61.0336 1.93448 62.5561 5.92638C59.6173 8.07017 57.4575 5.33496 55.0144 4.55876Z" fill="#0032C9"/>
<path d="M39.9663 98.7363C41.3826 99.6604 41.8075 101.841 42.4448 103.32C43.4362 105.574 44.5693 107.755 45.8085 109.862C48.5349 114.482 51.8632 118.696 55.1561 122.909C59.4404 128.343 63.7955 133.924 69.6023 137.509C71.9746 138.988 74.5239 140.097 77.1087 141.169C83.1279 143.608 89.4659 145.678 95.91 145.641C102.354 145.604 109.082 143.128 113.153 137.879C114.853 135.698 116.021 133.148 117.296 130.708C120.306 125.016 124.059 119.805 127.777 114.63" stroke="#0032C9" stroke-width="2" stroke-miterlimit="10"/>
<path d="M142.541 152.37C138.009 155.881 133.123 157.803 128.237 153.626C123.244 149.339 116.411 145.79 119.42 136.808C120.341 132.595 117.26 129.231 117.154 125.239C117.154 123.946 117.331 122.763 118.252 121.802C120.093 120.73 122.005 119.732 122.607 117.33C123.35 116.11 123.315 114.742 123.315 113.412C123.457 111.12 122.607 108.976 122.678 106.684C124.094 96.0763 126.041 85.5422 126.254 74.7123C126.395 66.3589 124.236 58.9295 120.447 51.7959C119.349 49.689 117.721 49.1715 115.596 49.0976C107.807 48.8758 100.796 46.3625 95.0953 40.6333C91.9441 37.4916 87.5535 36.6045 84.1544 33.8693C81.4634 41.7422 79.3036 49.7999 74.4882 56.6748C76.0816 57.0444 77.8165 56.7118 79.0912 58.0424C79.8702 61.2212 77.604 61.5908 75.7628 61.3321C71.4785 60.7407 68.7168 62.7736 66.4507 66.1371C63.5473 68.3918 59.9711 68.6136 56.6428 69.5007C55.616 69.7964 54.5892 70.166 53.4562 70.0181C53.1375 69.9812 52.7834 69.5006 52.4647 69.9811C52.925 70.2399 53.0313 70.6465 52.8543 71.164C52.1461 72.088 51.1901 72.3098 50.1279 72.3467C42.3029 71.0161 42.5507 71.0161 41.8425 79.3695C41.3114 85.8748 42.7278 92.3432 41.8072 98.8115C40.3555 102.397 39.4703 106.093 39.2224 109.974C38.1602 112.155 37.9832 114.225 38.6913 116.701C39.5411 119.584 39.9305 122.652 40.0722 125.683C40.2138 128.972 40.7804 132.817 37.3104 134.776C34.1592 136.587 32.4596 133.038 30.0873 131.93C28.0337 130.673 25.803 132.41 23.7139 131.597C18.0488 130.34 13.1271 127.864 9.83426 122.578C9.79885 122.319 9.76346 122.061 9.76346 121.802C9.16153 119.658 8.20551 117.662 7.53277 115.555C7.1787 114.373 6.89541 113.19 6.61215 112.007C6.50592 107.904 6.29355 103.838 3.31933 100.66C2.89444 99.8095 2.50494 98.9594 2.15086 98.0723C1.08864 95.9285 1.12401 93.5259 0.699125 91.2343C-1.28369 78.9999 0.805347 67.9483 8.84283 58.3751C11.4984 55.1964 13.375 51.4262 14.4727 47.1756C16.1722 40.8181 17.4115 34.0541 20.4919 28.4359C23.6432 22.7068 26.3695 15.1295 35.5754 16.5341C38.5497 16.9776 40.3201 13.0227 41.2761 10.5832C43.3651 5.40853 46.5872 2.63638 51.8275 2.26676C53.3854 1.56448 54.483 2.41462 55.5806 3.33867C57.8113 5.11285 60.3606 5.51943 63.087 5.18677C63.7951 5.26069 64.3617 5.66725 64.9636 6.03687C72.2929 6.81307 79.5869 8.51334 87.0224 6.51739C89.9966 5.70423 93.1479 6.03687 95.9097 8.06978C96.7595 8.69813 98.0695 8.91993 99.1317 8.88297C106.992 8.3655 114.853 7.70017 122.678 7.10878C128.201 7.21966 133.866 6.25865 138.823 9.88093C142.116 12.3943 144.382 15.684 145.622 19.7498C146.507 21.3392 147.994 22.3002 149.481 22.6698C158.793 25.1462 160.741 35.6434 157.306 44.4774C156.35 46.9169 155.075 49.2085 158.085 51.0197C159.112 52.609 160.989 53.3852 161.661 55.2703C162.334 57.1184 163.113 58.9295 163.927 60.7406C165.662 64.4368 166.264 68.244 164.99 72.2359C163.502 75.1928 163.644 77.4105 165.839 80.4414C168.707 84.4703 169.415 89.608 166.937 94.487C165.273 97.7396 165.556 100.364 167.928 103.284C173.027 109.678 172.85 116.442 167.893 122.726C166.547 123.391 165.768 124.87 164.352 125.461C163.927 125.794 163.502 126.126 163.078 126.422C162.299 127.198 161.555 126.718 160.811 126.348C159.395 125.424 158.227 125.979 157.129 127.051C155.748 129.934 158.51 132.188 158.156 134.886C158.191 136.402 158.085 137.88 157.554 139.322C157.058 140.505 156.35 141.503 155.252 142.131C152.42 143.092 150.083 144.903 147.888 146.936C145.834 148.415 143.745 149.893 142.541 152.37Z" fill="#0032C9"/>
<path d="M142.542 152.367C141.869 148.116 145.091 147.414 147.711 146.157C150.367 145.011 152.774 143.533 154.828 141.389C155.501 140.724 156.174 140.095 156.846 139.43C157.944 137.841 157.271 135.993 157.59 134.255C157.979 131.89 156.28 129.746 156.882 127.307C158.05 125.865 159.148 124.313 161.343 125.052C161.662 125.902 162.334 126.235 163.149 126.345C161.343 127.787 160.352 129.081 160.847 132.075C162.193 140.354 156.775 147.931 148.703 149.41C146.259 149.927 144.914 152.219 142.542 152.367Z" fill="#0032C9"/>
<path d="M0.699253 91.1973C1.51362 93.3041 2.3634 95.4109 3.17777 97.4808C2.43422 99.0702 3.28403 100.438 3.74433 101.842C4.52329 105.391 5.93957 108.754 6.82475 112.229C7.63912 113.042 6.96642 114.742 8.45353 115.186C9.97605 117.145 10.1884 119.399 9.72814 121.765C2.08014 113.116 -1.17734 102.988 0.699253 91.1973Z" fill="#0032C9"/>
<path d="M24.1745 130.525C25.9802 131.745 28.8482 127.974 30.0875 131.892C23.5725 137.067 16.6327 135.884 10.7904 128.64C9.76362 127.864 9.86986 126.755 10.5426 126.016C11.4278 125.055 12.4192 125.794 13.0919 126.496C15.5704 129.194 18.5447 130.821 22.0855 131.301C22.9706 131.412 23.7496 131.523 24.1745 130.525Z" fill="#0032C9"/>
<path d="M24.1744 130.523C24.5638 131.225 26.6529 132.223 23.9265 132.445C19.2527 132.815 15.4642 131.04 12.3483 127.455C11.9588 127.012 11.6756 125.57 10.755 126.716C10.4717 127.049 10.7904 128.01 10.8258 128.675C8.87837 126.938 8.59512 124.905 9.86979 122.576C14.3311 125.792 18.4383 129.747 24.1744 130.523Z" fill="#0032C9"/>
<path d="M160.847 55.1961C159.679 53.9763 157.802 53.2741 158.191 50.9824C163.68 52.9414 166.441 56.6746 166.548 62.6994C166.583 65.9151 166.406 69.1677 165.096 72.1986C165.875 67.9479 164.211 64.2887 162.617 60.5925C163.538 58.2639 161.52 56.9702 160.847 55.1961Z" fill="#0032C9"/>
<path d="M139.178 11.064C134.221 7.44168 127.989 9.47457 122.784 7.07204C129.582 4.15204 135.814 4.85432 141.337 10.2138C141.16 12.0619 140.24 11.7662 139.178 11.064Z" fill="#0032C9"/>
<path d="M139.178 11.0611C139.921 10.9132 140.842 11.2089 141.302 10.2109C144.985 12.2808 145.728 15.7922 145.693 19.7102C143.533 16.8271 141.338 13.9441 139.178 11.0611Z" fill="#0032C9"/>
<path d="M164.423 125.458C165.273 124.09 166.229 122.871 167.964 122.723C167.043 124.016 166.335 125.606 164.423 125.458Z" fill="#0032C9"/>
<path d="M6.47063 113.042C4.87729 109.456 3.39022 105.834 2.78829 101.879C2.71748 100.955 1.97389 99.6615 3.81507 99.7355C7.14337 103.099 8.52424 107.165 7.60365 111.97C7.88691 113.079 7.39122 113.301 6.47063 113.042Z" fill="#0032C9"/>
<path d="M119.031 121.984C120.624 116.883 122.217 111.782 123.846 106.682C123.775 109.232 125.085 111.598 124.519 114.185C123.173 115.22 123.917 116.883 123.386 118.177C122.572 120.247 121.828 122.39 119.031 121.984Z" fill="#0032C9"/>
<path d="M37.9834 24.1837C35.1863 24.0359 32.7432 23.925 30.2292 23.7771C32.8848 20.1918 34.0178 20.2288 37.9834 24.1837Z" fill="#0032C9"/>
<path d="M85.677 26.7699C89.5718 26.2524 91.2006 27.3982 89.324 31.7227C87.0225 30.9835 86.2081 29.1354 85.677 26.7699Z" fill="#0032C9"/>
<path d="M154.828 141.428C153.872 145.309 151.393 146.751 147.711 146.196C149.658 143.905 151.464 141.391 154.828 141.428Z" fill="#0032C9"/>
<path d="M157.554 127.308C157.59 129.637 158.829 131.892 157.979 134.294C157.696 134.849 157.484 134.812 157.307 134.22C156.669 132.668 156.067 131.115 155.395 129.6C154.722 128.048 154.368 126.68 156.351 125.904C157.448 125.682 157.767 126.273 157.554 127.308Z" fill="#0032C9"/>
<path d="M55.5455 70.5709C55.8641 71.6427 57.9177 72.0123 56.6785 73.6756C56.0057 74.1192 55.2976 74.3779 54.5186 74.304C53.8104 74.0453 53.0315 73.8974 52.7482 73.0103C52.0047 72.4559 51.2257 71.8645 50.4822 71.3101C51.2257 70.9774 51.9693 70.6817 52.7482 70.349C53.7042 69.6098 54.6603 69.5729 55.5455 70.5709Z" fill="#0032C9"/>
<path d="M15.9951 66.1361C14.1894 67.4298 12.3837 68.7234 10.5779 70.0171C11.6401 67.6146 12.6668 65.212 15.9951 66.1361Z" fill="#0032C9"/>
<path d="M38.8683 66.543C40.3908 69.7587 40.32 71.4589 38.9745 73.7136C37.3812 71.385 37.9831 69.6108 38.8683 66.543Z" fill="#0032C9"/>
<path d="M50.0571 22.7422C52.6065 23.2597 54.2706 23.7401 55.0495 25.6252C55.1557 25.9209 54.6601 26.845 54.4476 26.845C52.1461 26.8819 51.2964 24.9969 50.0571 22.7422Z" fill="#0032C9"/>
<path d="M53.1729 18.3438C51.4733 16.6805 49.9154 15.7195 51.1901 13.7236C51.4733 13.28 52.6772 12.9474 52.8542 13.1322C54.1643 14.5367 53.5269 16.1631 53.1729 18.3438Z" fill="#0032C9"/>
<path d="M134.327 130.744C132.061 130.817 131.388 129.45 131.034 128.008C130.821 127.158 131.742 126.826 132.344 127.047C133.937 127.713 134.079 129.154 134.327 130.744Z" fill="#0032C9"/>
<path d="M160.847 55.1934C162.334 56.6718 165.06 57.7068 162.617 60.5898C162.334 58.6678 160.528 57.3372 160.847 55.1934Z" fill="#0032C9"/>
<path d="M157.554 127.31C157.164 126.83 156.74 126.386 156.35 125.906C157.908 124.945 159.36 123.245 161.342 125.13C159.749 125.241 158.758 126.46 157.554 127.31Z" fill="#0032C9"/>
<path d="M127.847 15.4238C129.936 16.3109 130.645 17.4567 130.715 19.2679C129.193 18.6026 128.308 17.6415 127.847 15.4238Z" fill="#0032C9"/>
<path d="M55.5453 70.5715C54.6248 70.4976 53.6687 70.4237 52.7481 70.3497C52.5711 69.9801 51.0486 70.128 52.1462 69.3887C53.173 68.7234 54.6248 68.7234 55.8994 68.4277C55.7578 69.167 55.6516 69.8693 55.5453 70.5715Z" fill="#0032C9"/>
<path d="M131.246 120.988C131.353 121.912 131.105 122.466 130.361 122.577C129.653 122.651 129.193 122.244 129.193 121.505C129.157 120.803 129.476 120.285 130.184 120.1C131.069 119.805 131.034 120.655 131.246 120.988Z" fill="#0032C9"/>
<path d="M58.8027 56.3775C58.3778 54.5294 58.9089 53.2357 60.1482 53.3097C62.0956 53.4575 60.7855 54.6033 60.3252 55.2687C60.0774 55.6383 59.5462 55.8231 58.8027 56.3775Z" fill="#0032C9"/>
<path d="M38.3728 16.7903C38.9039 16.2729 39.258 15.6445 39.7537 15.4967C40.8513 15.164 40.4618 16.2359 40.4618 16.6425C40.4618 17.1969 40.3556 18.047 39.435 17.7883C39.081 17.6774 38.8331 17.2339 38.3728 16.7903Z" fill="#0032C9"/>
<path d="M6.47046 113.041C6.85994 112.671 7.24944 112.338 7.63892 111.969C7.92218 113.041 8.20541 114.149 8.48866 115.221C6.47044 115.813 6.85994 114.039 6.47046 113.041Z" fill="#0032C9"/>
<path d="M157.271 134.221C157.483 134.221 157.731 134.258 157.944 134.295C157.837 136.069 158.51 138.028 156.811 139.469C156.988 137.732 157.129 135.958 157.271 134.221Z" fill="#0032C9"/>
<path d="M153.942 27.5469C155.394 27.6208 156.032 28.2861 155.819 29.8385C154.58 29.5428 153.907 28.9145 153.942 27.5469Z" fill="#0032C9"/>
<path d="M35.1864 127.75C35.9653 127.676 36.1423 128.12 36.0361 128.6C35.9299 128.97 35.6112 129.488 35.2572 129.598C34.7615 129.746 34.3365 129.34 34.5136 128.785C34.6198 128.342 35.0093 128.046 35.1864 127.75Z" fill="#0032C9"/>
<path d="M136.876 113.301C138.293 113.929 138.682 114.89 138.08 116.184C136.522 115.703 136.982 114.373 136.876 113.301Z" fill="#0032C9"/>
<path d="M31.1495 100.621C32.3888 101.212 32.849 101.989 32.1055 103.356C31.1495 102.654 30.6538 101.915 31.1495 100.621Z" fill="#0032C9"/>
<path d="M3.81505 99.7351C3.46097 100.437 3.14234 101.177 2.78827 101.879C2.15093 100.327 1.05325 98.7741 3.1777 97.4805C3.39014 98.2567 3.6026 98.9959 3.81505 99.7351Z" fill="#0032C9"/>
<path d="M104.549 105.76C104.761 106.13 105.009 106.5 105.222 106.869C106.107 109.087 105.363 110.492 103.31 111.305C102.425 111.785 101.469 111.896 100.477 111.822C99.3441 111.785 98.2111 111.674 96.3345 112.007C98.3173 111.822 99.5212 111.711 100.725 111.859C101.893 112.007 102.991 111.6 104.053 111.268C104.797 111.268 105.399 111.563 105.895 112.118C106.072 113.338 106.815 114.779 104.762 115.112C100.194 114.003 95.6264 113.855 90.988 114.336C90.4569 114.373 89.9258 114.447 89.3946 114.483C88.1908 114.668 86.9516 115.112 85.9601 113.966C85.7477 113.485 85.6769 112.968 85.7123 112.451C86.208 109.678 85.9601 106.795 86.5621 104.023C86.9161 102.693 87.6597 101.658 88.8282 100.992C89.076 100.992 89.3593 100.992 89.6071 100.918C91.1651 99.8096 93.0416 101.251 94.635 100.29C97.0427 99.6987 97.9278 103.21 100.371 102.619C100.513 105.613 102.814 105.28 104.549 105.76Z" fill="#0032C9"/>
<path d="M119.633 60.3691C109.542 57.3383 100.3 58.4471 90.5986 61.2932C94.5997 54.6031 115.632 53.9377 119.633 60.3691Z" fill="#0032C9"/>
<path d="M120.447 76.8937C115.455 80.7747 101.54 82.8076 97.2554 79.9985C103.381 80.0724 108.904 78.483 114.499 77.3372C116.128 77.0045 118.323 77.2633 118.748 74.6759C120.447 74.4542 119.633 76.3762 120.447 76.8937Z" fill="#0032C9"/>
<path d="M83.5882 65.7299C81.3576 67.9846 83.3758 70.3871 83.3758 72.7157C83.3758 75.1922 84.5442 77.6317 83.9069 80.1821C81.2867 80.3669 83.2341 77.6686 82.0303 76.9294C81.9594 76.4119 81.8886 75.9314 81.7824 75.414C79.835 64.3993 79.835 64.3993 68.7879 65.0277C67.7965 63.4753 68.7879 63.2534 69.9564 63.1426C73.6387 63.0686 77.2857 63.4383 80.968 63.4752C81.2159 63.4383 81.4638 63.4383 81.7116 63.4013C83.0571 63.5492 83.0925 64.8428 83.5882 65.7299Z" fill="#0032C9"/>
<path d="M86.031 100.807C81.1802 102.914 76.9314 105.539 76.5065 111.859C76.4357 113.005 75.3026 112.487 74.5591 112.229C75.161 104.319 77.4979 100.918 83.2339 99.7355C84.3669 99.5137 85.4999 99.3289 86.031 100.807Z" fill="#0032C9"/>
<path d="M113.082 64.0291C107.523 65.2489 102 66.4686 96.2639 66.2099C100.902 63.5486 106.036 63.5117 111.064 62.8464C111.985 62.7355 113.259 62.0332 113.082 64.0291Z" fill="#0032C9"/>
<path d="M83.0923 119.73C88.5096 120.359 92.8648 120.876 97.9988 121.468C93.2188 123.833 88.4034 123.279 83.0923 119.73Z" fill="#0032C9"/>
<path d="M82.03 76.9668C82.6674 78.0387 83.2693 79.1476 83.9067 80.2195C83.4464 80.8109 82.9861 81.4023 82.5258 82.0306C79.0559 81.9567 75.5859 81.8828 72.1514 81.8458C70.4519 81.5501 68.1503 83.4352 67.1589 80.4043C70.8767 80.3673 74.7007 79.702 78.2415 80.4412C81.7114 81.1435 82.1717 79.8129 82.03 76.9668Z" fill="#0032C9"/>
<path d="M74.2761 114.667C77.5336 115.517 80.8264 113.447 84.0839 114.667L84.0486 114.556C80.8973 117.439 77.4627 117.144 73.922 115.517C73.8512 115.48 73.8512 115.185 73.922 115.074C74.0282 114.889 74.1699 114.778 74.2761 114.667Z" fill="#0032C9"/>
<path d="M108.586 70.4594C108.231 71.8639 107.523 72.9728 106.001 72.9728C104.231 72.9728 103.416 71.7531 103.558 70.0158C103.699 68.4634 104.655 67.7242 106.213 67.8351C107.842 67.946 108.444 68.9809 108.586 70.4594Z" fill="#0032C9"/>
<path d="M92.9001 75.4886C91.7317 72.4207 90.2091 69.4268 90.8111 65.7676C93.325 67.9483 93.8561 71.0531 94.2456 74.2318C94.458 75.4146 93.8916 75.7103 92.9001 75.4886Z" fill="#0032C9"/>
<path d="M67.1588 80.3669C68.5043 82.0302 70.558 81.0691 72.1513 81.8084C71.0891 82.0301 70.0268 82.2519 68.9292 82.4737C66.6631 83.5826 64.1847 81.9193 61.9186 83.0651C61.2812 83.0281 60.6085 82.9542 59.9712 82.9172C59.2276 82.5106 58.2007 82.5846 57.9529 81.4387C58.0591 81.217 58.1653 81.0322 58.2362 80.8104C61.2458 81.4018 64.1492 79.4798 67.1588 80.3669Z" fill="#0032C9"/>
<path d="M90.2447 90.2715C90.528 90.5302 90.8112 90.8259 91.059 91.0847C91.0944 92.7849 91.4131 94.5221 91.0945 96.1115C90.3863 99.475 92.0505 100.288 94.706 100.362C93.1835 101.878 91.3777 100.88 89.6782 100.99C90.9883 97.4791 87.7308 93.709 90.2447 90.2715Z" fill="#0032C9"/>
<path d="M54.4478 73.6016C55.1913 73.6385 55.9349 73.6755 56.6784 73.6755C57.2095 76.041 57.7407 78.4066 58.2718 80.7722L57.9177 80.994C57.7053 81.918 58.0947 83.0638 57.0679 83.7292C55.5808 82.2876 56.9971 80.033 55.7225 78.5175C54.4478 77.1499 54.8372 75.2649 54.4478 73.6016Z" fill="#0032C9"/>
<path d="M88.4036 89.6072C88.0141 86.4655 87.6246 83.3237 87.0227 78.7773C89.6074 83.028 90.7051 86.1698 89.6783 89.792C89.2534 89.7181 88.8284 89.6442 88.4036 89.6072Z" fill="#0032C9"/>
<path d="M104.549 105.759C103.31 105.759 102.177 108.642 100.725 105.833C100.159 104.724 98.1405 104.022 100.407 102.691C102.531 102.691 103.629 104.096 104.549 105.759Z" fill="#0032C9"/>
<path d="M91.0237 114.372C95.6975 113.004 100.3 113.078 104.797 115.148C100.23 114.889 95.6266 114.631 91.0237 114.372Z" fill="#0032C9"/>
<path d="M114.109 62.0304C116.163 61.0694 118.11 60.515 119.066 63.5089C117.756 64.9504 119.243 67.1681 117.791 68.5727C116.269 67.1312 117.721 64.6547 116.092 63.2871C115.667 62.5109 114.428 63.0653 114.109 62.0304Z" fill="#0032C9"/>
<path d="M70.7705 62.8453C72.6825 61.3299 74.8777 62.5496 76.8959 62.0691C78.4538 62.6235 80.2951 62.143 81.7114 63.3997L81.5698 63.8432C77.9228 63.7324 74.2404 64.3977 70.7705 62.8453Z" fill="#0032C9"/>
<path d="M120.447 76.8908C119.881 76.1516 119.279 75.4123 118.712 74.6731C118.783 73.3055 118.854 71.9379 118.925 70.5703L119.35 70.6812C121.439 72.4553 120.695 74.71 120.447 76.8908Z" fill="#0032C9"/>
<path d="M119.349 70.6785L118.924 70.5676C117.756 70.3828 118.004 69.3478 117.791 68.5716C118.499 66.9453 116.977 64.7276 119.066 63.5078C118.216 65.9473 120.518 68.239 119.349 70.6785Z" fill="#0032C9"/>
<path d="M102.991 110.602C104.514 109.863 105.328 108.68 105.222 106.869C106.603 108.459 106.143 110.344 105.895 112.155C105.222 112.118 104.549 112.044 103.841 112.007C103.452 111.637 102.779 111.415 102.991 110.602Z" fill="#0032C9"/>
<path d="M84.0837 114.52L84.1192 114.631C84.4378 113.596 85.4293 113.522 86.1728 113.115C86.9164 114.483 88.3326 114.15 89.4657 114.52C87.6599 116.183 85.8541 115.185 84.0837 114.52Z" fill="#0032C9"/>
<path d="M85.3937 67.9461C84.1898 67.7243 84.0128 66.5415 83.4463 65.6914C85.0042 65.7653 86.5622 65.8393 88.1555 65.9502C88.0493 67.9831 86.1727 67.059 85.3937 67.9461Z" fill="#0032C9"/>
<path d="M92.9001 75.4853C93.3604 75.0788 93.7853 74.6722 94.2456 74.2656C95.2016 75.3006 95.5557 76.5203 95.5203 78.2575C93.5729 78.3314 93.2542 76.8529 92.9001 75.4853Z" fill="#0032C9"/>
<path d="M54.4479 73.6011C55.4039 75.1166 55.5809 76.8169 55.7226 78.5541C53.8814 77.1865 53.7043 74.8579 52.7483 73.0098C53.3148 73.2315 53.8813 73.4163 54.4479 73.6011Z" fill="#F8FAFC"/>
<path d="M114.109 62.0332C114.782 62.4398 115.455 62.8833 116.127 63.2899C115.101 63.5487 114.074 63.8074 113.083 64.0292C112.41 63.6226 111.737 63.253 111.064 62.8464C112.056 62.5877 113.082 62.2919 114.109 62.0332Z" fill="#0032C9"/>
<path d="M57.0679 83.8036C57.1741 82.8425 56.9971 81.7706 57.9177 81.0684C58.5904 81.6967 59.2986 82.3251 59.9713 82.9535C59.0153 83.2492 58.2363 84.2841 57.0679 83.8036Z" fill="#0032C9"/>
<path d="M66.2739 69.166C68.2921 69.6465 69.5314 70.7184 69.3897 72.7144C69.2835 74.5994 67.9026 75.2647 66.3093 75.0799C64.5389 74.8582 63.2289 73.7863 63.4059 71.7903C63.5476 70.0161 65.0346 69.4987 66.2739 69.166Z" fill="#0032C9"/>
<path d="M70.7705 62.8477C74.382 63.1803 77.9582 63.513 81.5697 63.8456C77.6395 64.6588 73.78 64.6218 69.9915 63.1433C70.2039 62.9955 70.4518 62.8846 70.7705 62.8477Z" fill="#0032C9"/>
<path d="M101.15 112.782C99.4506 112.708 97.7511 112.598 95.9099 112.524C96.8659 110.528 98.4946 110.786 100.017 110.786C100.584 111.341 101.469 111.71 101.15 112.782Z" fill="#0032C9"/>
<path d="M101.15 112.782C100.76 112.117 100.406 111.452 100.017 110.786C101.008 110.712 102 110.675 102.991 110.602C103.274 111.082 103.593 111.526 103.876 112.006C102.991 112.265 102.07 112.524 101.15 112.782Z" fill="#0032C9"/>
</svg>
