<svg width="311" height="458" viewBox="0 0 311 458" fill="none" xmlns="http://www.w3.org/2000/svg">
<path d="M7.80541 15.4594V17.2063M7.80541 17.2063V51.9545C7.80541 72.7577 6.137 92.5299 3.86822 113.122C2.88096 122.082 3.37607 131.237 3.37607 140.236C3.37607 145.325 3.18767 150.285 4.26194 155.284C6.27308 164.642 4.95597 174.705 5.34467 184.206C5.63755 191.366 6.03367 198.436 6.03367 205.605V337.857C6.03367 350.097 4.5642 362.141 4.21272 374.352C3.6298 394.606 -0.606386 416.188 4.4588 436.301C7.34089 447.745 29.6466 452.791 40.1395 454.72C54.2669 457.317 70.3852 455.159 84.7774 455.159C104.561 455.159 124.348 455.283 144.13 455.159C181.414 454.926 218.728 454.28 256.045 454.28C270.703 454.28 305.457 460.743 305.457 437.522C305.457 408.869 308.114 380.302 308.114 351.683C308.114 303.777 309 255.83 309 207.901C309 182.721 306.781 158.078 303.685 133.055C301.387 114.478 298.37 96.5495 298.37 77.7991C298.37 64.8069 298.518 51.8039 298.37 38.8124C298.283 31.2192 296.423 25.9408 291.283 20.7358C280.917 10.2398 268.137 6.45755 253.584 5.34631C242.992 4.53744 232.355 5.05842 221.742 4.85775C208.986 4.61654 196.374 2.80545 183.65 2.36612C161.573 1.60384 139.347 2.26841 117.259 2.26841C94.0073 2.26841 70.8559 2.9829 47.7678 5.78601C36.5667 7.14593 14.2378 6.13468 7.80541 17.2063ZM7.80541 17.2063C6.67335 19.1548 6.03367 21.4776 6.03367 24.2534" stroke="#0032C9" stroke-width="4" stroke-linecap="round"/>
</svg>
