<svg width="127" height="157" viewBox="0 0 127 157" fill="none" xmlns="http://www.w3.org/2000/svg">
<path d="M2.64777 50.5778C2.18748 48.8783 1.62094 47.2142 3.24968 45.6562C4.87842 47.7807 3.07266 49.1261 2.64777 50.5778Z" fill="#0032C9"/>
<path d="M14.2259 92.2518C13.2345 92.2518 12.6326 91.756 12.7034 90.7646C12.7388 90.4105 13.1991 89.8086 13.447 89.8086C14.3676 89.844 14.8278 90.5521 15.0757 91.4019C15.2881 92.2163 14.6154 92.1101 14.2259 92.2518Z" fill="#0032C9"/>
<path d="M113.119 87.1531C111.667 86.1263 110.676 84.9579 112.127 83.1875C112.446 84.533 112.765 85.843 113.119 87.1531Z" fill="#0032C9"/>
<path d="M34.5498 109.318C36.1431 114.488 31.0799 114.381 29.0263 114.771C25.2377 115.514 20.9534 115.196 17.1648 114.204C12.5972 113.071 8.84404 109.849 8.02966 105.069C7.39233 101.245 5.58659 98.3773 3.46214 95.4739C1.40851 92.6767 1.44385 89.8795 1.79792 86.2679C2.89555 75.3624 5.72815 64.3861 0.912739 53.4098C-2.1323 46.47 2.93096 34.042 8.87941 29.6515C11.4641 27.7749 13.27 24.8361 15.3236 22.2868C16.6337 20.658 17.8375 18.3211 19.8204 18.1441C25.6272 17.6484 28.6368 13.7181 31.9651 9.78792C33.7709 7.66348 36.8159 7.2032 39.2944 5.99934C44.9242 3.27297 51.6516 4.33523 56.9981 0.546637C57.9541 -0.126104 60.114 -0.196936 61.0346 0.440398C68.4347 5.53906 77.322 1.46716 85.2178 4.72464C92.8658 7.8405 100.726 10.0712 104.834 18.1087C105.86 20.0915 107.631 18.7106 108.941 19.2417C111.384 20.1269 112.021 23.5968 115.137 23.4906C117.722 28.0581 119.528 33.0152 123.352 36.9454C125.405 39.0698 126.113 42.2211 125.795 45.2661C125.051 52.1352 124.308 59.0043 122.254 65.6963C120.838 70.2638 120.165 74.973 123.564 79.5052C128.38 85.9139 126.467 97.6692 120.448 103.228C118.359 105.176 116.058 107.017 115.774 110.451C115.597 112.824 113.862 114.523 111.207 114.736C110.215 115.125 109.33 115.231 108.693 114.169C108.658 113.602 108.87 113.248 109.507 113.213C108.728 112.682 108.126 113.603 107.383 113.496C106.462 113.532 105.577 113.957 104.621 113.85C103.134 112.965 101.505 112.717 99.8411 112.646C96.442 111.62 93.8218 109.672 92.1931 106.45C93.3969 100.148 97.1147 94.9782 100.018 89.4546C101.895 88.711 102.178 90.2336 102.815 91.3667C103.559 92.7475 102.638 94.093 103.842 94.9427C104.373 95.2968 105.648 95.2614 106.675 95.049C108.87 94.5887 110.463 90.3752 110.216 87.755C110.216 86.3741 111.596 84.8516 110.924 83.6124C110.145 81.842 108.374 81.3463 106.923 80.5319C100.903 77.1328 100.549 75.8582 104.196 69.4141C104.763 68.8475 105.648 68.4935 105.542 67.4666C105.046 68.4935 104.444 69.2724 103.24 68.281C102.249 66.5106 101.93 64.5278 101.505 62.5804C100.089 56.2425 99.9473 49.5151 93.8572 44.9829C90.3519 42.3982 87.1652 41.5129 83.3412 43.6728C82.8809 43.8498 82.4206 43.9207 81.9249 43.8853C78.7383 42.1149 75.7287 42.7168 72.7544 44.5226C71.8693 44.9475 70.9487 45.337 70.0281 45.7264C65.2127 48.7007 60.6451 51.852 54.555 52.4185C48.7482 52.9496 44.0745 51.4625 39.9318 47.6031C38.9404 46.4346 39.6485 43.779 36.9222 44.0269C31.3278 42.0441 30.3363 42.2566 31.5756 48.3466C33.3814 57.3401 27.2205 63.1824 24.8127 70.4763C24.317 71.928 22.9716 72.9193 21.3782 73.415C18.8643 73.9815 15.7485 71.928 13.8719 75.15C12.2786 77.1683 11.1809 79.2219 13.5178 81.4879C15.536 82.7272 15.5714 84.9578 16.315 86.8698C17.2002 89.1359 18.1916 91.6853 21.4845 89.6316C22.1572 89.1713 22.83 88.9944 23.5381 89.5963C25.2731 92.2164 27.0788 94.8011 25.8042 98.2002C25.6271 98.4835 25.3439 98.6252 25.096 98.873C24.4587 99.4749 23.9984 98.3418 23.3965 98.7313C24.14 99.5103 24.8127 99.227 25.5209 98.6605C28.8492 101.918 31.8234 105.53 34.5498 109.318Z" fill="#0032C9"/>
<path d="M92.9367 111.62C92.6534 109.106 92.4056 108.646 92.2285 106.415C92.8658 103.122 97.2564 111.054 100.726 111.514C101.151 114.028 103.488 112.682 104.763 113.497C105.506 113.178 106.25 112.859 106.993 112.505C107.525 113.249 108.835 112.647 109.189 113.709C109.897 114.063 110.605 114.382 111.278 114.736C107.985 115.267 104.657 115.373 101.328 115.904C98.6726 116.329 94.9548 116.577 94.2113 111.868C93.751 108.752 94.353 111.479 92.9367 111.62Z" fill="#0032C9"/>
<path d="M115.172 23.4911C110.392 26.0404 110.357 21.6499 108.976 19.2422C111.986 19.2776 114.11 20.6231 115.172 23.4911Z" fill="#0032C9"/>
<path d="M108.587 94.5169C110.18 90.9054 110.888 87.1876 109.295 83.4698C108.162 80.8143 106.533 78.3711 103.594 82.0181C101.08 82.0535 102.532 79.9645 101.966 78.9731C101.045 73.3079 99.2746 67.6073 102.674 62.1191C103.063 64.3144 103.453 66.4743 103.842 68.6695C104.302 68.8111 104.657 69.1298 104.798 69.5901C102.284 76.53 102.284 76.5654 108.622 79.9999C110.109 80.7788 112.021 80.9559 112.092 83.222C111.526 84.7799 112.765 85.8775 113.083 87.1876C113.65 90.87 113.473 94.1274 108.587 94.5169Z" fill="#0032C9"/>
<path d="M72.5066 43.425C75.41 42.3981 78.2779 38.6096 81.2876 43.2834C77.7468 47.1782 75.3038 47.2136 72.5066 43.425Z" fill="#0032C9"/>
<path d="M72.5066 43.4248C75.4809 46.6823 78.3842 45.1598 81.2876 43.2832C81.7479 43.2832 82.2082 43.2832 82.7039 43.2832C79.3048 47.9216 75.7995 48.2756 70.0635 44.5225C70.8778 44.133 71.6923 43.7789 72.5066 43.4248Z" fill="#0032C9"/>
<path d="M91.5909 38.0413C91.7326 39.5638 90.4933 39.4222 89.5727 39.2806C88.6521 39.1743 87.2358 39.4576 87.1296 38.0768C86.9879 36.4834 88.5105 36.3063 89.6081 36.0939C90.9182 35.846 91.3077 36.8729 91.5909 38.0413Z" fill="#0032C9"/>
<path d="M25.1311 98.9093C25.379 101.671 23.9626 101.494 22.688 99.9715C21.8382 98.9447 21.732 97.2452 21.2363 95.6519C23.8565 95.581 23.8565 98.095 25.2374 99.0156C25.202 99.0156 25.1311 98.9093 25.1311 98.9093Z" fill="#0032C9"/>
<path d="M104.727 113.498C102.886 113.852 99.5578 117.181 100.691 111.515C102.284 111.692 104.692 110.17 104.727 113.498Z" fill="#0032C9"/>
<path d="M104.798 69.5575C104.479 69.2388 104.161 68.9555 103.842 68.6369C105.506 67.433 104.161 65.3794 105.258 63.9277C107.808 66.0876 107.312 67.8933 104.798 69.5575Z" fill="#0032C9"/>
<path d="M39.9317 46.3637C38.4445 45.9388 37.8072 44.8412 37.6655 43.3541C41.3479 42.1856 40.392 44.4871 39.9317 46.3637Z" fill="#0032C9"/>
<path d="M101.576 108.893C101.364 109.211 101.151 109.707 100.833 109.849C100.302 110.097 99.8766 109.636 99.9474 109.141C100.018 108.751 100.337 108.255 100.691 108.043C101.328 107.689 101.399 108.291 101.576 108.893Z" fill="#0032C9"/>
<path d="M109.153 113.708C108.374 113.39 107.347 113.496 106.958 112.505C107.808 112.469 108.657 112.292 109.472 112.398C110.074 112.469 111.384 111.796 111.03 113.284C110.994 113.531 109.826 113.567 109.153 113.708Z" fill="#0032C9"/>
<path d="M76.1536 58.1561C85.5011 55.4297 91.3788 57.3771 94.8841 64.1399C89.5376 59.3599 83.1288 57.9791 76.1536 58.1561Z" fill="#0032C9"/>
<path d="M61.5656 96.182C60.4325 92.9954 60.9636 89.6671 60.9282 86.3742C60.8574 80.709 60.645 75.1146 58.3789 69.6973C61.7072 72.459 62.5216 76.1414 62.7695 80.0009C61.8843 84.2852 62.4862 88.5694 62.4508 92.8891C62.4154 94.1284 62.8048 95.3322 61.5656 96.182Z" fill="#0032C9"/>
<path d="M62.2739 118.525C67.8683 120.543 72.8254 119.835 78.3489 117.533C73.746 122.951 65.9563 123.446 62.2739 118.525Z" fill="#0032C9"/>
<path d="M36.143 69.697C36.0368 63.5007 40.3565 59.8892 47.6859 59.8184C43.26 62.4031 38.055 64.1026 36.143 69.697Z" fill="#0032C9"/>
<path d="M61.5657 96.1828C62.6279 90.8363 60.6805 85.2774 62.7696 80.0371C63.1945 87.3664 63.5839 94.7312 64.0796 103.229C60.9284 100.609 61.7073 98.2719 61.5657 96.1828Z" fill="#0032C9"/>
<path d="M54.2363 104.894C52.82 108.86 51.3684 112.825 49.6688 117.605C48.5004 111.869 51.2621 108.293 53.1033 104.398C53.4574 104.575 53.8469 104.717 54.2363 104.894Z" fill="#7D92C6"/>
<path d="M84.9699 74.7238C83.1288 74.9008 82.6331 73.5907 82.5977 72.2806C82.5977 71.0414 83.3058 70.4395 84.5096 70.4395C85.8551 70.4749 86.9173 70.9351 86.9173 72.4577C86.9173 73.9094 85.9259 74.6176 84.9699 74.7238Z" fill="#0032C9"/>
<path d="M47.4025 73.7693C47.4733 75.4689 46.7298 76.1062 45.5613 76.1062C44.2867 76.1416 43.1536 75.6813 43.0828 74.1588C43.012 72.8841 43.8972 72.353 44.9948 72.2114C46.4111 72.0698 47.2609 72.7779 47.4025 73.7693Z" fill="#0032C9"/>
<path d="M78.5612 107.265C75.6578 106.415 73.8874 105.707 72.7898 103.3C75.764 102.945 76.7554 104.787 78.5612 107.265Z" fill="#7D92C6"/>
<path d="M32.2483 111.194C33.2397 111.123 36.4264 114.77 37.2408 115.513C39.1174 117.178 40.9231 118.948 42.5519 120.895C44.3577 123.091 45.9156 125.463 47.4735 127.871C51.1559 133.571 54.8383 139.236 58.5207 144.937C60.1848 147.486 61.8489 150.071 64.115 152.054C69.5677 156.834 78.3134 157.33 84.2618 153.222C85.1116 152.62 85.9259 151.983 86.5987 151.169C88.0504 149.469 88.8647 147.309 89.4313 145.114C91.9806 134.952 89.148 123.976 92.1223 113.955C92.972 111.123 94.3529 108.326 96.796 106.732" stroke="#0032C9" stroke-width="2" stroke-miterlimit="10"/>
</svg>
